<?xml version="1.0" encoding="UTF-8" standalone="no"?>
<!-- Generator: Adobe Illustrator 16.0.1, SVG Export Plug-In . SVG Version: 6.00 Build 0)  -->

<svg
   xmlns:dc="http://purl.org/dc/elements/1.1/"
   xmlns:cc="http://creativecommons.org/ns#"
   xmlns:rdf="http://www.w3.org/1999/02/22-rdf-syntax-ns#"
   xmlns:svg="http://www.w3.org/2000/svg"
   xmlns="http://www.w3.org/2000/svg"
   xmlns:sodipodi="http://sodipodi.sourceforge.net/DTD/sodipodi-0.dtd"
   xmlns:inkscape="http://www.inkscape.org/namespaces/inkscape"
   version="1.1"
   id="Layer_1"
   x="0px"
   y="0px"
   width="589px"
   height="769px"
   viewBox="0 0 589 769"
   enable-background="new 0 0 589 769"
   xml:space="preserve"
   inkscape:version="0.48.2 r9819"
   sodipodi:docname="front_cover.svg"><metadata
   id="metadata3243"><rdf:RDF><cc:Work
       rdf:about=""><dc:format>image/svg+xml</dc:format><dc:type
         rdf:resource="http://purl.org/dc/dcmitype/StillImage" /><dc:title /></cc:Work></rdf:RDF></metadata><defs
   id="defs3241" /><sodipodi:namedview
   pagecolor="#ffffff"
   bordercolor="#666666"
   borderopacity="1"
   objecttolerance="10"
   gridtolerance="10"
   guidetolerance="10"
   inkscape:pageopacity="0"
   inkscape:pageshadow="2"
   inkscape:window-width="1920"
   inkscape:window-height="1018"
   id="namedview3239"
   showgrid="false"
   inkscape:snap-page="true"
   inkscape:snap-to-guides="false"
   inkscape:snap-bbox="true"
   inkscape:zoom="1.0780234"
   inkscape:cx="149.79071"
   inkscape:cy="442.6356"
   inkscape:window-x="-8"
   inkscape:window-y="-8"
   inkscape:window-maximized="1"
   inkscape:current-layer="Layer_1" />

<rect
   x="26"
   y="684"
   fill="#FFFFFF"
   width="448"
   height="7"
   id="rect3118" />
<rect
   x="25.072376"
   y="728.63812"
   width="450.78287"
   height="2.3618817"
   id="rect3120"
   style="fill:#757575" />
<rect
   x="473.07239"
   y="728.63812"
   width="89.855247"
   height="2.3618817"
   id="rect3122"
   style="fill:#004d93" />
<rect
   x="26"
   y="186"
   width="448"
   height="2.3618817"
   id="rect3124"
   style="fill:#757575" />
<rect
   x="474"
   y="186"
   width="87.07238"
   height="2.3618817"
   id="rect3126"
   style="fill:#004d93" />
<g
   id="g3128">
	<g
   id="g3130">
		<path
   fill="#CF0A2C"
   d="M45.581,119.484c-4.399-3.787-8.825-9.25-8.828-15.96l0,0c-0.001-3.847,1.546-8.209,5.271-12.729l0,0    l0.203,0.369c-3.684,4.469-5.102,8.611-5.102,12.359l0,0c-0.018,9.799,9.777,17.028,14.7,20.019l0,0    c1.637,0.996,4.064,2.742,4.064,2.742C55.884,126.281,49.983,123.273,45.581,119.484L45.581,119.484z"
   id="path3132" />
	</g>
	<g
   id="g3134">
		<path
   fill="#E82429"
   d="M45.073,87.862l0.281-0.254c7.833,7.197,15.068,8.537,19.459,8.538l0,0c2.021,0,3.434-0.288,4.005-0.434    l0,0c0.19-0.047,0.285-0.077,0.285-0.077l0,0h0.001l-0.169,0.271c-0.014,0.005-1.379,0.608-4.121,0.608l0,0    C60.346,96.521,52.972,95.125,45.073,87.862L45.073,87.862z"
   id="path3136" />
	</g>
	<g
   id="g3138">
		<path
   fill="#CF0A2C"
   d="M61.841,81.503c-8.85-0.001-14.775,4.984-16.109,6.224l0,0C45.544,87.906,45.448,88,45.448,88l0,0    l-0.375-0.14c0.019-0.019,6.487-6.729,16.771-6.73l0,0c5.068,0,10.792,1.569,17.298,6.329c1.125,0.909,3.708,2.966,0.8,0.798    C73.114,83.177,66.979,81.504,61.841,81.503L61.841,81.503z"
   id="path3140" />
	</g>
	<g
   id="g3142">
		<path
   fill="#E82429"
   d="M39.881,75.579c0-1.435,0.185-1.915,0.237-1.99c0.052-0.075,0.017-0.063,0.139-0.162    c0.122-0.099,0.29-0.187,0.29-0.187c-0.006,0.075-0.103,0.383-0.165,0.745l0,0c-0.065,0.359-0.129,0.896-0.129,1.594l0,0    c0,2.067,0.584,5.501,3.496,9.851l-0.023,0.035l-0.23,0.287C40.543,81.345,39.881,77.716,39.881,75.579L39.881,75.579z"
   id="path3144" />
	</g>
	<g
   id="g3146">
		<g
   id="g3148">
			
				<radialGradient
   id="SVGID_1_"
   cx="57.2048"
   cy="576.1082"
   r="22.5007"
   gradientTransform="matrix(1 0 0 -1 -9.3003 659.7983)"
   gradientUnits="userSpaceOnUse">
				<stop
   offset="0"
   style="stop-color:#FFFFFF"
   id="stop3151" />
				<stop
   offset="0.0577"
   style="stop-color:#F9DEE3"
   id="stop3153" />
				<stop
   offset="0.1793"
   style="stop-color:#EC9EAC"
   id="stop3155" />
				<stop
   offset="0.2955"
   style="stop-color:#E2697E"
   id="stop3157" />
				<stop
   offset="0.4032"
   style="stop-color:#DA405B"
   id="stop3159" />
				<stop
   offset="0.5003"
   style="stop-color:#D42241"
   id="stop3161" />
				<stop
   offset="0.6213"
   style="stop-color:#D01032"
   id="stop3163" />
				<stop
   offset="0.6763"
   style="stop-color:#C71032"
   id="stop3165" />
				<stop
   offset="0.7659"
   style="stop-color:#AF0E30"
   id="stop3167" />
				<stop
   offset="0.879"
   style="stop-color:#870C2E"
   id="stop3169" />
				<stop
   offset="1"
   style="stop-color:#550A2C"
   id="stop3171" />
			</radialGradient>
			<path
   fill="url(#SVGID_1_)"
   d="M46.915,81.85c3.979-4.063,10.117-6.755,16.813-7.198l0.111-0.059     c-3.382-3.218-7.488-4.755-12.526-4.755c-4.102,0-7.885,1.324-10.979,3.548c-0.985,3.526,0.786,8.563,3.14,12.088     C44.511,84.295,45.809,82.98,46.915,81.85z M34.545,80.731c-1.187,2.468-2.086,5.04-2.086,7.961     c0,4.694,1.729,8.981,4.567,12.282c0.249-4.754,1.54-8.339,3.382-11.345C37.772,87.198,35.772,84.278,34.545,80.731z      M47.639,94.221c-1.879-0.722-3.778-1.805-5.555-3.175c-2.535,3.042-4.312,6.364-4.919,10.078     c3.455,3.93,8.477,6.779,14.121,6.779c7.886,0,14.873-5.068,17.687-11.94C60.314,99.065,53.941,96.641,47.639,94.221z      M69.283,82.744c-0.403-1.158-9.981-3.145-18.66,1.383c-2.461,1.283-3.507,2.212-5.312,3.745     c0.546,0.617,1.188,1.131,1.674,1.507c7.643,5.883,14.782,7.825,21.816,6.528l0.223-0.111c0.844-2.136,1.283-4.649,1.283-7.086     C70.311,87.101,69.828,84.31,69.283,82.744z"
   id="path3173" />
		</g>
	</g>
	<path
   d="M73.187,103.614c0.063-0.307,0.124-0.754,0.193-1.353c0.826-0.208,1.543-0.353,2.149-0.43   c0.609-0.077,1.203-0.117,1.781-0.117c0.62,0,1.199,0.06,1.741,0.171c0.54,0.113,0.99,0.297,1.347,0.554   c0.358,0.255,0.599,0.546,0.712,0.876c0.117,0.33,0.179,0.683,0.179,1.062c0,0.473-0.035,1.268-0.104,2.385   c-0.07,1.116-0.123,2.148-0.161,3.1c-0.036,0.945-0.054,1.792-0.054,2.532c-0.375-0.014-0.682-0.021-0.918-0.021   c-0.223,0-0.539,0.007-0.949,0.021l0.21-2.813l0.151-3.329c-0.24,0.188-0.42,0.317-0.54,0.393c-0.12,0.077-0.256,0.146-0.406,0.215   c-0.148,0.063-0.314,0.127-0.5,0.186c-0.182,0.059-0.535,0.16-1.059,0.305c-0.524,0.146-0.897,0.256-1.116,0.33   c-0.473,0.151-0.846,0.306-1.121,0.453c-0.274,0.152-0.504,0.317-0.688,0.496c-0.188,0.179-0.316,0.358-0.395,0.538   c-0.091,0.22-0.134,0.45-0.134,0.691c0,0.368,0.108,0.692,0.327,0.97c0.218,0.272,0.492,0.466,0.823,0.572   c0.329,0.104,0.729,0.157,1.19,0.157c0.287,0,0.586-0.02,0.9-0.062c0.313-0.042,0.729-0.15,1.258-0.324   c-0.093,0.268-0.201,0.672-0.321,1.222c-0.5,0.103-0.908,0.162-1.222,0.188c-0.316,0.025-0.613,0.037-0.896,0.037   c-0.938,0-1.669-0.11-2.194-0.33c-0.528-0.219-0.92-0.554-1.185-1.004c-0.261-0.45-0.39-0.939-0.39-1.468   c0-0.312,0.046-0.596,0.138-0.854c0.096-0.261,0.221-0.498,0.377-0.712c0.158-0.211,0.385-0.425,0.676-0.639   c0.292-0.212,0.599-0.391,0.917-0.524c0.318-0.138,0.69-0.271,1.117-0.407c0.428-0.134,1.108-0.313,2.051-0.542   c0.303-0.064,0.561-0.138,0.771-0.21c0.213-0.07,0.403-0.144,0.567-0.211c0.165-0.065,0.31-0.146,0.433-0.242   c0.123-0.092,0.237-0.203,0.34-0.34c0.104-0.134,0.18-0.269,0.229-0.403c0.048-0.141,0.068-0.274,0.068-0.412   c0-0.334-0.106-0.621-0.328-0.859c-0.221-0.239-0.507-0.406-0.858-0.501c-0.354-0.096-0.771-0.143-1.25-0.143   c-0.446,0-0.906,0.032-1.375,0.104c-0.471,0.072-0.875,0.156-1.216,0.254C74.118,103.271,73.695,103.416,73.187,103.614z"
   id="path3175" />
	<path
   fill="#CF0A2C"
   d="M82.266,112.391l2.76-3.692l1.393-1.899l-3.089-4.824c0.505,0.01,0.876,0.013,1.107,0.013   c0.319,0,0.654-0.003,1.007-0.013c0.376,0.729,1.112,1.985,2.205,3.773c1.33-1.885,2.195-3.143,2.6-3.773   c0.358,0.01,0.691,0.013,1,0.013c0.276,0,0.615-0.003,1.021-0.013l-1.749,2.314c-0.166,0.213-0.771,1.035-1.82,2.468   c0.786,1.282,1.442,2.322,1.973,3.116l1.631,2.52c-0.416-0.014-0.758-0.021-1.031-0.021c-0.315,0-0.679,0.007-1.08,0.021   c-0.352-0.686-0.792-1.459-1.319-2.319l-1.374-2.24l-1.267,1.797c-0.719,1.014-1.346,1.938-1.879,2.764   c-0.408-0.014-0.739-0.021-0.994-0.021C83.07,112.371,82.708,112.378,82.266,112.391z"
   id="path3177" />
	<path
   d="M96.618,112.391l-0.485-1.489l-3.203-8.929c0.38,0.01,0.689,0.013,0.923,0.013c0.225,0,0.505-0.003,0.854-0.013   l0.903,2.769l2.097,6.058l3.233-8.824c0.376,0.01,0.695,0.013,0.962,0.013c0.286,0,0.601-0.003,0.94-0.013l2.388,8.824l2.862-6.829   l0.798-1.995c0.374,0.01,0.662,0.013,0.862,0.013l0.894-0.013l-3.456,7.756l-1.127,2.662c-0.346-0.014-0.664-0.021-0.955-0.021   c-0.297,0-0.646,0.007-1.046,0.021l-1.91-7.219c-0.126-0.474-0.257-0.94-0.396-1.409l-0.207,0.534   c-0.063,0.152-0.202,0.532-0.421,1.145l-2.177,5.923c-0.104,0.279-0.227,0.624-0.361,1.026c-0.354-0.014-0.665-0.021-0.945-0.021   C97.344,112.371,97.001,112.378,96.618,112.391z"
   id="path3179" />
	<path
   d="M112.176,103.614c0.061-0.307,0.125-0.754,0.193-1.353c0.823-0.208,1.543-0.353,2.15-0.43   c0.608-0.077,1.203-0.117,1.781-0.117c0.62,0,1.199,0.06,1.74,0.171c0.54,0.113,0.986,0.297,1.348,0.554   c0.356,0.255,0.595,0.546,0.712,0.876c0.118,0.33,0.176,0.683,0.176,1.062c0,0.473-0.033,1.268-0.104,2.385   c-0.069,1.116-0.123,2.148-0.159,3.1c-0.037,0.945-0.056,1.792-0.056,2.532c-0.375-0.014-0.684-0.021-0.917-0.021   c-0.226,0-0.539,0.007-0.949,0.021l0.21-2.813l0.151-3.329c-0.241,0.188-0.421,0.317-0.541,0.393   c-0.12,0.077-0.255,0.146-0.406,0.215c-0.15,0.063-0.317,0.127-0.498,0.186c-0.183,0.059-0.536,0.16-1.063,0.305   c-0.522,0.146-0.896,0.256-1.113,0.33c-0.477,0.151-0.85,0.306-1.122,0.453c-0.273,0.152-0.504,0.317-0.689,0.496   c-0.185,0.179-0.313,0.358-0.391,0.538c-0.089,0.22-0.133,0.45-0.133,0.691c0,0.368,0.106,0.692,0.327,0.97   c0.217,0.272,0.489,0.466,0.821,0.572c0.33,0.104,0.729,0.157,1.191,0.157c0.286,0,0.587-0.02,0.896-0.062   c0.314-0.042,0.734-0.15,1.263-0.324c-0.098,0.268-0.202,0.672-0.323,1.222c-0.5,0.103-0.907,0.162-1.222,0.188   c-0.314,0.025-0.612,0.037-0.895,0.037c-0.938,0-1.671-0.11-2.197-0.33c-0.524-0.219-0.921-0.554-1.182-1.004   s-0.39-0.939-0.39-1.468c0-0.312,0.046-0.596,0.139-0.854s0.217-0.498,0.375-0.712c0.157-0.211,0.383-0.425,0.675-0.639   c0.291-0.212,0.6-0.391,0.917-0.524c0.319-0.138,0.692-0.271,1.119-0.407c0.425-0.134,1.109-0.313,2.05-0.542   c0.305-0.064,0.562-0.138,0.772-0.21c0.212-0.07,0.4-0.144,0.565-0.211c0.163-0.065,0.31-0.146,0.434-0.242   c0.124-0.092,0.236-0.203,0.339-0.34c0.103-0.134,0.179-0.269,0.228-0.403c0.05-0.141,0.072-0.274,0.072-0.412   c0-0.334-0.107-0.621-0.33-0.859c-0.22-0.239-0.506-0.406-0.857-0.501c-0.354-0.096-0.771-0.143-1.251-0.143   c-0.446,0-0.905,0.032-1.375,0.104c-0.474,0.072-0.875,0.156-1.217,0.254C113.107,103.271,112.683,103.416,112.176,103.614z"
   id="path3181" />
	<path
   d="M120.966,117.151c-0.044-0.583-0.098-1.076-0.161-1.479c0.344,0.162,0.665,0.273,0.96,0.331   c0.295,0.057,0.548,0.086,0.754,0.086c0.271,0,0.53-0.048,0.784-0.144c0.254-0.099,0.461-0.226,0.619-0.379   c0.159-0.158,0.327-0.375,0.502-0.652c0.174-0.277,0.36-0.602,0.556-0.975c0.194-0.373,0.382-0.791,0.563-1.251l-2.196-6.248   l-1.605-4.469c0.514,0.017,0.854,0.021,1.021,0.021c0.197,0,0.516-0.007,0.958-0.021c0.108,0.479,0.199,0.849,0.273,1.102   c0.072,0.254,0.233,0.77,0.483,1.551l1.53,4.715c0.168,0.535,0.338,1.11,0.506,1.728l1.165-2.833l2.154-5.023   c0.062-0.151,0.122-0.306,0.182-0.468c0.058-0.16,0.149-0.416,0.272-0.768c0.438,0.017,0.74,0.021,0.915,0.021   c0.144,0,0.462-0.007,0.953-0.021c-0.269,0.609-0.917,2.031-1.943,4.267l-3.821,8.477c-0.269,0.568-0.513,0.999-0.729,1.294   c-0.183,0.233-0.372,0.438-0.579,0.606c-0.166,0.144-0.354,0.267-0.561,0.37c-0.255,0.124-0.527,0.219-0.826,0.287   c-0.321,0.065-0.651,0.103-0.99,0.103C122.17,117.375,121.592,117.3,120.966,117.151z"
   id="path3183" />
	<g
   id="g3185">
		<path
   fill="#9EA0A3"
   d="M56.792,120.855l0.033-0.404c0.005-0.073,0.011-0.208,0.021-0.408l0.104-2.448l0.043-1.668    c0.146,0.003,0.26,0.003,0.341,0.003c0.084,0,0.188,0,0.317-0.003c-0.03,0.312-0.063,0.754-0.089,1.334    c0.253-0.057,0.46-0.095,0.622-0.112c0.161-0.021,0.32-0.03,0.479-0.03c0.304,0,0.568,0.038,0.802,0.115    c0.229,0.075,0.422,0.202,0.573,0.383c0.147,0.179,0.256,0.375,0.316,0.588c0.063,0.214,0.097,0.439,0.097,0.683    c0,0.273-0.038,0.539-0.113,0.795c-0.077,0.26-0.189,0.484-0.342,0.686c-0.154,0.197-0.339,0.343-0.561,0.435    c-0.22,0.091-0.459,0.139-0.719,0.139c-0.14,0-0.271-0.017-0.393-0.048c-0.123-0.026-0.233-0.068-0.332-0.124    c-0.102-0.053-0.186-0.111-0.251-0.181c-0.068-0.066-0.125-0.135-0.17-0.203c-0.047-0.064-0.097-0.159-0.149-0.276l-0.01,0.75    c-0.145-0.006-0.239-0.009-0.299-0.009C57.074,120.847,56.966,120.849,56.792,120.855z M57.528,117.743    c-0.017,0.396-0.026,0.663-0.033,0.791c-0.01,0.128-0.013,0.28-0.013,0.458c0,0.378,0.042,0.668,0.129,0.87    c0.087,0.203,0.219,0.354,0.392,0.458c0.172,0.104,0.368,0.153,0.586,0.153c0.252,0,0.47-0.063,0.649-0.188    c0.186-0.127,0.323-0.321,0.429-0.582c0.1-0.261,0.147-0.532,0.147-0.813c0-0.396-0.104-0.716-0.313-0.959    c-0.21-0.24-0.527-0.362-0.949-0.362c-0.147,0-0.299,0.013-0.456,0.038C57.938,117.629,57.75,117.674,57.528,117.743z"
   id="path3187" />
		<path
   fill="#9EA0A3"
   d="M64.578,120.855c-0.118-0.007-0.222-0.01-0.306-0.01c-0.097,0-0.194,0.002-0.299,0.01l0.021-0.696    c-0.062,0.105-0.108,0.189-0.15,0.251c-0.042,0.059-0.094,0.117-0.157,0.173c-0.062,0.057-0.127,0.104-0.19,0.143    c-0.066,0.039-0.146,0.073-0.233,0.104c-0.089,0.031-0.193,0.056-0.313,0.077c-0.117,0.021-0.244,0.031-0.381,0.031    c-0.293,0-0.543-0.049-0.75-0.137c-0.209-0.088-0.363-0.215-0.473-0.379s-0.16-0.387-0.16-0.672c0-0.043,0.002-0.117,0.006-0.22    c0.005-0.104,0.015-0.238,0.021-0.404l0.057-1.203l0.01-0.387c0.003-0.088,0.006-0.202,0.006-0.339l0.338,0.003    c0.065,0,0.174,0,0.313-0.003c-0.035,0.421-0.063,0.882-0.097,1.383c-0.031,0.5-0.046,0.821-0.046,0.96    c0,0.212,0.032,0.382,0.104,0.509c0.069,0.125,0.186,0.227,0.344,0.292c0.158,0.069,0.343,0.104,0.542,0.104    c0.18,0,0.351-0.031,0.515-0.098c0.14-0.055,0.258-0.13,0.353-0.224c0.104-0.104,0.191-0.237,0.261-0.4    c0.053-0.118,0.092-0.273,0.114-0.467c0.021-0.137,0.034-0.384,0.053-0.741c0.021-0.434,0.031-0.872,0.041-1.318l0.333,0.003    c0.072,0,0.174,0,0.304-0.003c-0.033,0.434-0.072,1.092-0.118,1.975C64.602,119.658,64.585,120.219,64.578,120.855z"
   id="path3189" />
		<path
   fill="#9EA0A3"
   d="M65.375,120.789l-0.021-0.268c0-0.029-0.009-0.122-0.024-0.278c0.368,0.161,0.714,0.241,1.026,0.241    c0.164,0,0.306-0.022,0.416-0.064c0.113-0.043,0.199-0.104,0.256-0.189c0.059-0.088,0.084-0.176,0.084-0.267    c0-0.051-0.008-0.101-0.021-0.148c-0.019-0.053-0.039-0.102-0.07-0.146c-0.032-0.047-0.079-0.099-0.14-0.154    c-0.063-0.057-0.19-0.163-0.385-0.316c-0.194-0.156-0.344-0.278-0.442-0.367c-0.101-0.088-0.188-0.178-0.258-0.271    c-0.07-0.092-0.124-0.186-0.157-0.276c-0.034-0.096-0.05-0.189-0.05-0.286c0-0.154,0.048-0.303,0.146-0.448    c0.101-0.144,0.239-0.252,0.425-0.322c0.187-0.068,0.401-0.104,0.649-0.104c0.278,0,0.583,0.032,0.917,0.097    c0.009,0.189,0.021,0.364,0.032,0.522c-0.271-0.113-0.538-0.169-0.801-0.169c-0.146,0-0.275,0.019-0.397,0.056    s-0.211,0.093-0.269,0.167c-0.059,0.075-0.084,0.156-0.084,0.245c0,0.058,0.009,0.114,0.025,0.167    c0.021,0.052,0.056,0.108,0.104,0.171c0.049,0.062,0.105,0.121,0.179,0.182c0.072,0.063,0.209,0.175,0.419,0.341    c0.209,0.165,0.354,0.287,0.429,0.366c0.079,0.079,0.146,0.16,0.2,0.245c0.059,0.084,0.099,0.168,0.121,0.251    c0.025,0.083,0.039,0.167,0.039,0.254c0,0.168-0.051,0.325-0.15,0.472c-0.099,0.145-0.249,0.256-0.444,0.335    c-0.197,0.079-0.419,0.119-0.666,0.119c-0.104,0-0.229-0.009-0.365-0.021c-0.14-0.014-0.258-0.029-0.357-0.046    C65.642,120.851,65.52,120.824,65.375,120.789z"
   id="path3191" />
		<path
   fill="#9EA0A3"
   d="M68.499,120.855l0.063-0.91l0.073-1.555l0.03-1.192l0.329,0.003l0.32-0.003    c-0.025,0.376-0.054,0.768-0.073,1.179c-0.023,0.41-0.042,0.858-0.059,1.345c-0.014,0.486-0.021,0.864-0.021,1.136    c-0.152-0.007-0.262-0.01-0.324-0.01C68.785,120.847,68.669,120.849,68.499,120.855z M68.665,116.412    c0.007-0.225,0.011-0.396,0.011-0.509c0.133,0.004,0.25,0.007,0.351,0.007c0.128,0,0.245-0.003,0.351-0.007    c-0.005,0.071-0.015,0.243-0.022,0.509c-0.131-0.002-0.243-0.004-0.336-0.004C68.923,116.408,68.805,116.41,68.665,116.412z"
   id="path3193" />
		<path
   fill="#9EA0A3"
   d="M70.121,120.855c0.115-1.512,0.18-2.729,0.185-3.657l0.322,0.003c0.08,0,0.184,0,0.313-0.003l-0.047,0.724    c0.063-0.101,0.107-0.179,0.146-0.229c0.033-0.057,0.084-0.111,0.145-0.174c0.063-0.061,0.13-0.114,0.212-0.168    c0.083-0.052,0.181-0.095,0.29-0.13c0.111-0.035,0.225-0.061,0.337-0.078c0.114-0.017,0.229-0.022,0.341-0.022    c0.206,0,0.406,0.022,0.602,0.076c0.188,0.051,0.35,0.133,0.474,0.247c0.124,0.111,0.207,0.24,0.249,0.384    c0.042,0.142,0.063,0.294,0.063,0.458c0,0.031,0,0.092-0.002,0.18c-0.003,0.088-0.011,0.206-0.018,0.353l-0.072,1.512    c-0.007,0.145-0.011,0.321-0.014,0.53c-0.104-0.007-0.209-0.01-0.306-0.01c-0.118,0-0.229,0.002-0.33,0.01    c0.023-0.291,0.043-0.571,0.057-0.843l0.047-0.841c0.019-0.289,0.023-0.506,0.023-0.651c0-0.215-0.037-0.385-0.108-0.512    c-0.069-0.126-0.188-0.224-0.347-0.292c-0.159-0.065-0.338-0.104-0.536-0.104c-0.277,0-0.52,0.063-0.719,0.199    c-0.183,0.123-0.324,0.297-0.427,0.521c-0.07,0.162-0.12,0.4-0.147,0.716c-0.038,0.377-0.063,0.979-0.077,1.803    c-0.135-0.007-0.236-0.01-0.313-0.01C70.386,120.847,70.273,120.849,70.121,120.855z"
   id="path3195" />
		<path
   fill="#9EA0A3"
   d="M77.588,120.276c-0.029,0.136-0.061,0.307-0.088,0.514c-0.23,0.057-0.434,0.095-0.604,0.115    c-0.17,0.02-0.338,0.027-0.507,0.027c-0.301,0-0.57-0.034-0.81-0.106c-0.241-0.072-0.445-0.198-0.617-0.376    c-0.17-0.183-0.292-0.385-0.368-0.616c-0.075-0.231-0.112-0.476-0.112-0.733c0-0.355,0.069-0.688,0.206-0.994    c0.14-0.311,0.346-0.551,0.619-0.728c0.276-0.175,0.625-0.263,1.049-0.263c0.222,0,0.431,0.032,0.628,0.095    c0.201,0.064,0.365,0.161,0.499,0.291c0.135,0.129,0.235,0.29,0.31,0.481c0.072,0.188,0.106,0.396,0.106,0.625    c0,0.087-0.008,0.17-0.021,0.253h-2.744c-0.01,0.132-0.016,0.23-0.016,0.303c0,0.252,0.052,0.484,0.155,0.697    c0.105,0.213,0.264,0.374,0.47,0.48c0.206,0.11,0.441,0.165,0.712,0.165C76.768,120.509,77.145,120.43,77.588,120.276z     M75.161,118.565h2.146c-0.002-0.15-0.011-0.271-0.028-0.354c-0.017-0.083-0.048-0.17-0.094-0.26    c-0.045-0.089-0.105-0.167-0.185-0.233c-0.08-0.063-0.172-0.112-0.281-0.147c-0.11-0.035-0.228-0.055-0.356-0.055    c-0.136,0-0.266,0.021-0.39,0.061s-0.233,0.091-0.328,0.158c-0.095,0.063-0.175,0.145-0.242,0.231    c-0.063,0.089-0.112,0.18-0.146,0.263C75.224,118.31,75.192,118.423,75.161,118.565z"
   id="path3197" />
		<path
   fill="#9EA0A3"
   d="M78.34,120.789l-0.021-0.268c0-0.029-0.008-0.122-0.025-0.278c0.373,0.161,0.715,0.241,1.026,0.241    c0.164,0,0.305-0.022,0.416-0.064c0.114-0.043,0.199-0.104,0.258-0.189c0.056-0.088,0.085-0.176,0.085-0.267    c0-0.051-0.01-0.101-0.023-0.148c-0.016-0.053-0.041-0.102-0.071-0.146c-0.028-0.047-0.078-0.099-0.14-0.154    c-0.063-0.057-0.189-0.163-0.384-0.316c-0.195-0.156-0.346-0.278-0.442-0.367c-0.101-0.088-0.186-0.178-0.258-0.271    c-0.072-0.092-0.124-0.186-0.158-0.276c-0.035-0.096-0.052-0.189-0.052-0.286c0-0.154,0.049-0.303,0.146-0.448    c0.1-0.144,0.239-0.252,0.426-0.322c0.185-0.068,0.398-0.104,0.647-0.104c0.277,0,0.584,0.032,0.917,0.097    c0.008,0.189,0.021,0.364,0.032,0.522c-0.271-0.113-0.537-0.169-0.801-0.169c-0.145,0-0.274,0.019-0.397,0.056    c-0.122,0.037-0.21,0.093-0.268,0.167c-0.06,0.075-0.085,0.156-0.085,0.245c0,0.058,0.009,0.114,0.025,0.167    c0.021,0.052,0.058,0.108,0.104,0.171c0.05,0.062,0.109,0.121,0.18,0.182c0.07,0.063,0.209,0.175,0.419,0.341    c0.209,0.165,0.354,0.287,0.432,0.366c0.075,0.079,0.144,0.16,0.197,0.245c0.058,0.084,0.099,0.168,0.122,0.251    c0.025,0.083,0.038,0.167,0.038,0.254c0,0.168-0.05,0.325-0.148,0.472c-0.102,0.145-0.249,0.256-0.446,0.335    s-0.419,0.119-0.665,0.119c-0.104,0-0.229-0.009-0.366-0.021c-0.14-0.014-0.259-0.029-0.354-0.046    C78.606,120.851,78.485,120.824,78.34,120.789z"
   id="path3199" />
		<path
   fill="#9EA0A3"
   d="M81.271,120.789l-0.02-0.268c0-0.029-0.009-0.122-0.027-0.278c0.371,0.161,0.714,0.241,1.028,0.241    c0.164,0,0.302-0.022,0.415-0.064c0.112-0.043,0.199-0.104,0.256-0.189c0.055-0.088,0.084-0.176,0.084-0.267    c0-0.051-0.008-0.101-0.023-0.148c-0.016-0.053-0.039-0.102-0.068-0.146c-0.032-0.047-0.078-0.099-0.143-0.154    c-0.061-0.057-0.188-0.163-0.384-0.316c-0.194-0.156-0.342-0.278-0.442-0.367c-0.101-0.088-0.186-0.178-0.258-0.271    c-0.068-0.092-0.124-0.186-0.158-0.276c-0.032-0.096-0.051-0.189-0.051-0.286c0-0.154,0.048-0.303,0.147-0.448    c0.098-0.144,0.239-0.252,0.424-0.322c0.185-0.068,0.401-0.104,0.65-0.104c0.275,0,0.583,0.032,0.917,0.097    c0.007,0.189,0.019,0.364,0.029,0.522c-0.271-0.113-0.538-0.169-0.802-0.169c-0.142,0-0.274,0.019-0.396,0.056    c-0.122,0.037-0.213,0.093-0.271,0.167c-0.057,0.075-0.085,0.156-0.085,0.245c0,0.058,0.01,0.114,0.029,0.167    c0.021,0.052,0.053,0.108,0.103,0.171c0.051,0.062,0.11,0.121,0.183,0.182c0.069,0.063,0.21,0.175,0.419,0.341    c0.209,0.165,0.352,0.287,0.429,0.366c0.078,0.079,0.144,0.16,0.199,0.245c0.056,0.084,0.097,0.168,0.123,0.251    c0.022,0.083,0.038,0.167,0.038,0.254c0,0.168-0.054,0.325-0.15,0.472c-0.101,0.145-0.249,0.256-0.447,0.335    s-0.419,0.119-0.665,0.119c-0.104,0-0.227-0.009-0.363-0.021c-0.143-0.014-0.262-0.029-0.356-0.046    C81.537,120.851,81.416,120.824,81.271,120.789z"
   id="path3201" />
		<path
   fill="#9EA0A3"
   d="M84.379,120.855l0.029-0.666l0.369,0.007c0.058,0,0.167-0.002,0.333-0.007    c-0.009,0.104-0.015,0.191-0.018,0.271l-0.017,0.395c-0.158-0.007-0.271-0.01-0.335-0.01    C84.683,120.847,84.562,120.849,84.379,120.855z"
   id="path3203" />
		<path
   fill="#9EA0A3"
   d="M87.904,120.855l0.065-0.91l0.072-1.555l0.027-1.192l0.329,0.003l0.323-0.003    c-0.027,0.376-0.052,0.768-0.076,1.179c-0.021,0.41-0.041,0.858-0.055,1.345c-0.014,0.487-0.021,0.864-0.021,1.136    c-0.147-0.007-0.258-0.01-0.32-0.01C88.188,120.847,88.073,120.849,87.904,120.855z M88.07,116.412    c0.01-0.225,0.014-0.396,0.014-0.509c0.132,0.004,0.25,0.007,0.351,0.007c0.127,0,0.244-0.003,0.348-0.007    c-0.005,0.071-0.013,0.243-0.021,0.509c-0.13-0.002-0.243-0.004-0.337-0.004S88.209,116.41,88.07,116.412z"
   id="path3205" />
		<path
   fill="#9EA0A3"
   d="M89.525,120.855c0.118-1.512,0.183-2.729,0.188-3.657l0.324,0.003c0.076,0,0.182,0,0.312-0.003    l-0.048,0.724c0.062-0.101,0.106-0.179,0.145-0.229c0.036-0.057,0.084-0.111,0.146-0.174c0.06-0.061,0.131-0.114,0.212-0.168    c0.082-0.052,0.179-0.095,0.288-0.13c0.11-0.035,0.224-0.061,0.338-0.078c0.114-0.017,0.228-0.022,0.34-0.022    c0.207,0,0.407,0.022,0.602,0.076c0.189,0.051,0.351,0.133,0.474,0.247c0.125,0.111,0.207,0.24,0.249,0.384    c0.043,0.142,0.063,0.294,0.063,0.458c0,0.031-0.002,0.092-0.004,0.18c-0.003,0.088-0.007,0.206-0.015,0.353l-0.074,1.512    c-0.005,0.145-0.009,0.321-0.011,0.53c-0.107-0.007-0.211-0.01-0.306-0.01c-0.117,0-0.229,0.002-0.33,0.01    c0.021-0.291,0.043-0.571,0.055-0.843l0.049-0.841c0.017-0.289,0.022-0.506,0.022-0.651c0-0.215-0.036-0.385-0.108-0.512    c-0.074-0.126-0.188-0.224-0.348-0.292c-0.159-0.065-0.337-0.104-0.535-0.104c-0.281,0-0.521,0.063-0.719,0.199    c-0.187,0.123-0.326,0.297-0.429,0.521c-0.068,0.162-0.118,0.4-0.146,0.716c-0.036,0.377-0.063,0.979-0.077,1.803    c-0.134-0.007-0.238-0.01-0.313-0.01C89.789,120.847,89.676,120.849,89.525,120.855z"
   id="path3207" />
		<path
   fill="#9EA0A3"
   d="M95.841,120.855l0.04-0.523c0.007-0.111,0.016-0.286,0.029-0.523l0.087-2.197    c0.002-0.183,0.003-0.317,0.003-0.411c0.111,0.003,0.218,0.003,0.311,0.003c0.104,0,0.202,0,0.301-0.003l-0.028,0.674    c0.082-0.135,0.152-0.241,0.221-0.321c0.067-0.079,0.153-0.149,0.261-0.22c0.108-0.067,0.231-0.12,0.369-0.157    s0.281-0.056,0.43-0.056c0.104,0,0.206,0.012,0.309,0.036c0.1,0.021,0.19,0.059,0.277,0.101c0.085,0.043,0.157,0.094,0.221,0.148    c0.063,0.054,0.108,0.113,0.146,0.18c0.038,0.065,0.075,0.159,0.114,0.282c0.146-0.277,0.33-0.47,0.55-0.581    s0.466-0.166,0.737-0.166c0.173,0,0.341,0.027,0.503,0.083c0.164,0.055,0.291,0.134,0.389,0.238c0.098,0.103,0.16,0.21,0.192,0.32    c0.033,0.111,0.049,0.227,0.049,0.337c0,0.115-0.007,0.288-0.021,0.521c-0.019,0.229-0.034,0.583-0.058,1.055    c-0.021,0.474-0.03,0.867-0.033,1.185c-0.129-0.007-0.229-0.01-0.304-0.01c-0.078,0-0.195,0.002-0.347,0.01    c0.023-0.325,0.048-0.681,0.065-1.063l0.05-0.895c0.013-0.219,0.018-0.403,0.018-0.563c0-0.14-0.014-0.249-0.043-0.329    c-0.028-0.078-0.076-0.146-0.139-0.212c-0.063-0.063-0.146-0.107-0.236-0.143c-0.094-0.032-0.201-0.049-0.321-0.049    c-0.096,0-0.186,0.011-0.267,0.029c-0.077,0.021-0.151,0.058-0.227,0.101c-0.077,0.046-0.147,0.103-0.212,0.17    c-0.063,0.063-0.112,0.138-0.157,0.221c-0.048,0.084-0.083,0.188-0.111,0.3c-0.036,0.146-0.063,0.322-0.075,0.532    c-0.015,0.224-0.025,0.519-0.034,0.884l-0.022,1.01c-0.145-0.004-0.247-0.007-0.318-0.007c-0.066,0-0.178,0.002-0.335,0.007    c0.025-0.297,0.044-0.604,0.058-0.919l0.044-0.873c0.015-0.27,0.02-0.496,0.02-0.688c0-0.123-0.011-0.227-0.036-0.313    c-0.022-0.086-0.068-0.161-0.134-0.232c-0.066-0.071-0.146-0.125-0.239-0.163c-0.093-0.037-0.196-0.056-0.309-0.056    c-0.121,0-0.235,0.021-0.343,0.063c-0.108,0.042-0.209,0.105-0.3,0.188c-0.092,0.082-0.168,0.182-0.229,0.301    c-0.063,0.12-0.11,0.272-0.146,0.469c-0.035,0.193-0.062,0.531-0.082,1.012c-0.019,0.481-0.025,0.889-0.025,1.217    c-0.156-0.006-0.266-0.009-0.32-0.009C96.108,120.847,95.998,120.849,95.841,120.855z"
   id="path3209" />
		<path
   fill="#9EA0A3"
   d="M103.998,117.116c0.252,0,0.494,0.036,0.722,0.105c0.229,0.072,0.427,0.188,0.595,0.346    c0.167,0.154,0.293,0.354,0.38,0.591c0.086,0.239,0.134,0.49,0.134,0.755c0,0.286-0.05,0.561-0.144,0.823    c-0.092,0.263-0.222,0.482-0.389,0.668c-0.168,0.183-0.373,0.313-0.614,0.4c-0.241,0.084-0.501,0.128-0.778,0.128    c-0.257,0-0.5-0.036-0.729-0.113c-0.229-0.077-0.425-0.197-0.593-0.36c-0.167-0.165-0.294-0.365-0.38-0.601    c-0.09-0.237-0.133-0.486-0.133-0.746c0-0.395,0.08-0.745,0.238-1.062c0.159-0.313,0.395-0.549,0.701-0.705    C103.316,117.195,103.647,117.116,103.998,117.116z M103.982,117.574c-0.245,0-0.47,0.062-0.675,0.184    c-0.206,0.122-0.354,0.31-0.455,0.556c-0.099,0.244-0.146,0.516-0.146,0.806c0,0.254,0.042,0.481,0.123,0.687    c0.082,0.203,0.216,0.368,0.399,0.492c0.188,0.125,0.413,0.188,0.675,0.188c0.183,0,0.353-0.03,0.513-0.095    c0.161-0.061,0.301-0.16,0.42-0.305c0.12-0.141,0.209-0.313,0.266-0.52c0.061-0.207,0.087-0.421,0.087-0.647    c0-0.212-0.026-0.41-0.087-0.595c-0.057-0.188-0.146-0.334-0.265-0.446c-0.118-0.111-0.252-0.188-0.401-0.236    C104.286,117.597,104.135,117.574,103.982,117.574z"
   id="path3211" />
		<path
   fill="#9EA0A3"
   d="M108.372,120.38c-0.027,0.118-0.06,0.273-0.088,0.467c-0.164,0.039-0.293,0.064-0.392,0.073    c-0.096,0.01-0.187,0.015-0.271,0.015c-0.213,0-0.388-0.025-0.52-0.079c-0.13-0.057-0.229-0.144-0.3-0.263    c-0.07-0.12-0.104-0.278-0.104-0.483c0-0.026,0.001-0.073,0.003-0.144c0.002-0.064,0.014-0.302,0.033-0.704l0.092-1.614h-0.481    c0.009-0.104,0.021-0.246,0.025-0.437h0.485c0.014-0.136,0.024-0.366,0.036-0.689c0.229-0.045,0.419-0.083,0.576-0.12    c-0.017,0.354-0.026,0.626-0.028,0.812h1c-0.012,0.152-0.019,0.296-0.021,0.437h-0.998l-0.095,2.029l-0.003,0.156    c0,0.175,0.019,0.307,0.059,0.396c0.039,0.088,0.099,0.148,0.178,0.188c0.08,0.038,0.161,0.058,0.248,0.058    c0.063,0,0.124-0.005,0.194-0.015C108.073,120.452,108.197,120.425,108.372,120.38z"
   id="path3213" />
		<path
   fill="#9EA0A3"
   d="M108.92,120.855l0.063-0.91l0.072-1.555l0.031-1.192l0.328,0.003l0.32-0.003    c-0.024,0.376-0.053,0.768-0.073,1.179c-0.023,0.41-0.042,0.858-0.058,1.345c-0.014,0.487-0.021,0.864-0.021,1.136    c-0.15-0.007-0.258-0.01-0.323-0.01C109.205,120.847,109.089,120.849,108.92,120.855z M109.086,116.412    c0.006-0.225,0.01-0.396,0.01-0.509c0.133,0.004,0.25,0.007,0.352,0.007c0.13,0,0.244-0.003,0.351-0.007    c-0.005,0.071-0.012,0.243-0.022,0.509c-0.13-0.002-0.24-0.004-0.336-0.004C109.345,116.408,109.225,116.41,109.086,116.412z"
   id="path3215" />
		<path
   fill="#9EA0A3"
   d="M112.38,117.116c0.253,0,0.494,0.036,0.723,0.105c0.229,0.072,0.426,0.188,0.594,0.346    c0.167,0.154,0.293,0.354,0.383,0.591c0.087,0.239,0.129,0.49,0.129,0.755c0,0.286-0.045,0.561-0.141,0.823    c-0.094,0.262-0.223,0.482-0.389,0.668c-0.169,0.183-0.373,0.313-0.615,0.4c-0.243,0.084-0.501,0.128-0.774,0.128    c-0.26,0-0.5-0.036-0.729-0.113c-0.229-0.077-0.428-0.197-0.594-0.36c-0.167-0.165-0.294-0.365-0.381-0.601    c-0.086-0.237-0.13-0.486-0.13-0.746c0-0.395,0.079-0.745,0.236-1.062c0.158-0.313,0.394-0.549,0.699-0.705    C111.7,117.195,112.03,117.116,112.38,117.116z M112.365,117.574c-0.242,0-0.47,0.062-0.675,0.184s-0.354,0.31-0.455,0.556    c-0.098,0.244-0.146,0.516-0.146,0.806c0,0.254,0.04,0.481,0.122,0.687c0.081,0.203,0.215,0.368,0.4,0.492    c0.188,0.125,0.411,0.188,0.678,0.188c0.179,0,0.35-0.03,0.51-0.095c0.161-0.061,0.301-0.16,0.42-0.305    c0.12-0.141,0.209-0.313,0.266-0.52c0.061-0.207,0.086-0.421,0.086-0.647c0-0.212-0.025-0.41-0.086-0.595    c-0.057-0.188-0.145-0.334-0.264-0.446c-0.118-0.111-0.252-0.188-0.402-0.236C112.669,117.597,112.517,117.574,112.365,117.574z"
   id="path3217" />
		<path
   fill="#9EA0A3"
   d="M114.89,120.855c0.117-1.512,0.178-2.729,0.183-3.657l0.323,0.003c0.08,0,0.187,0,0.313-0.003    l-0.048,0.724c0.061-0.101,0.105-0.179,0.145-0.229c0.036-0.057,0.083-0.111,0.146-0.174c0.06-0.061,0.131-0.114,0.212-0.168    c0.083-0.052,0.178-0.095,0.289-0.13c0.107-0.035,0.223-0.061,0.336-0.078c0.112-0.017,0.228-0.022,0.342-0.022    c0.207,0,0.406,0.022,0.598,0.076c0.193,0.051,0.354,0.133,0.478,0.247c0.122,0.111,0.207,0.24,0.249,0.384    c0.042,0.142,0.063,0.294,0.063,0.458c0,0.031-0.001,0.092-0.004,0.18s-0.007,0.206-0.015,0.353l-0.076,1.512    c-0.004,0.145-0.007,0.321-0.01,0.53c-0.107-0.007-0.21-0.01-0.309-0.01c-0.117,0-0.228,0.002-0.33,0.01    c0.024-0.291,0.044-0.571,0.059-0.843l0.049-0.841c0.014-0.289,0.021-0.506,0.021-0.651c0-0.215-0.034-0.385-0.106-0.512    c-0.072-0.126-0.188-0.224-0.349-0.292c-0.157-0.065-0.337-0.104-0.532-0.104c-0.28,0-0.521,0.063-0.722,0.199    c-0.184,0.123-0.323,0.297-0.427,0.521c-0.07,0.162-0.119,0.4-0.146,0.716c-0.036,0.377-0.063,0.979-0.077,1.803    c-0.135-0.007-0.239-0.01-0.313-0.01C115.153,120.847,115.041,120.849,114.89,120.855z"
   id="path3219" />
		<path
   fill="#9EA0A3"
   d="M119.366,120.855l0.025-0.666l0.372,0.007c0.056,0,0.168-0.002,0.334-0.007    c-0.01,0.104-0.016,0.191-0.018,0.271l-0.02,0.395c-0.157-0.007-0.271-0.01-0.336-0.01    C119.67,120.847,119.548,120.849,119.366,120.855z"
   id="path3221" />
	</g>
	<g
   id="g3223">
		<path
   fill="#CF0A2C"
   d="M43.329,85.357c6.907-8.577,16.197-11.242,25.032-11.24l0,0c10.376,0.002,19.289,3.52,23.719,5.547    c1.747,0.8,1.605,0.798,1.605,0.798c-0.449-0.203-0.956-0.426-1.519-0.665c-0.618-0.262-1.299-0.54-2.041-0.827    c-0.794-0.308-1.652-0.625-2.569-0.939l0,0c-5.112-1.771-12.02-3.54-19.195-3.539l0,0c-8.766,0.002-18.041,2.792-24.868,11.263    l-0.216-0.338L43.329,85.357L43.329,85.357z"
   id="path3225" />
	</g>
	<g
   id="g3227">
		<path
   fill="#CF0A2C"
   d="M34.545,80.731l0.083-0.139c0,0,0.205,0.398,0.438,0.948l0,0c0.235,0.551,0.597,1.327,1.083,2.225l0,0    c0.983,1.793,2.497,4.072,4.615,6.008l0,0l-0.251,0.271c-4.319-3.944-6.113-8.973-6.119-8.987L34.545,80.731z"
   id="path3229" />
	</g>
	<g
   id="g3231">
		<path
   fill="#CF0A2C"
   d="M41.832,91.127l0.19-0.331c0.002,0.001,0.559,0.436,1.513,1.035l0,0c0.952,0.604,2.336,1.407,4.039,2.211    l0,0c3.402,1.608,8.097,3.214,13.229,3.213l0,0c2.623,0,5.48-0.411,8.225-1.46l-0.056,0.167l-0.123,0.068    c-2.792,1.064-5.386,1.597-8.047,1.597l0,0C50.381,97.623,41.847,91.135,41.832,91.127L41.832,91.127z"
   id="path3233" />
	</g>
	<g
   id="g3235">
		<path
   fill="#CF0A2C"
   d="M36.688,102.412c0.001-7.819,3.639-12.674,3.649-12.692l0,0l0,0l0.297,0.226    c0,0.001-0.217,0.291-0.552,0.854l0,0c-0.335,0.567-0.782,1.405-1.23,2.483l0,0c-0.895,2.158-1.792,5.278-1.792,9.128l0,0    c0.002,7.547,3.535,17.021,15.159,27.902l1.755,1.754C40.195,120.569,36.686,110.077,36.688,102.412L36.688,102.412z"
   id="path3237" />
	</g>
</g>
<rect
   style="fill:#a600ff;fill-opacity:0"
   id="rect4028"
   width="23.190592"
   height="51.946922"
   x="71.427017"
   y="263.44513" /><rect
   style="fill:#a600ff;fill-opacity:0"
   id="rect4030"
   width="18.552473"
   height="18.552473"
   x="163.26176"
   y="259.73462" /><rect
   style="fill:#a600ff;fill-opacity:0"
   id="rect4034"
   width="76.06514"
   height="95.545235"
   x="346.00363"
   y="252.31363" /><rect
   style="fill:#a600ff;fill-opacity:0"
   id="rect4036"
   width="0.92762363"
   height="30.61158"
   x="35.249699"
   y="201.29433" /><rect
   style="fill:#a600ff;fill-opacity:0"
   id="rect4038"
   width="11.131484"
   height="23.190592"
   x="27.828709"
   y="210.57057" /><rect
   style="fill:#a600ff;fill-opacity:0"
   id="rect4040"
   width="9.2762365"
   height="24.118216"
   x="39.887817"
   y="218.91917" /><rect
   style="fill:#a600ff;fill-opacity:0"
   id="rect4042"
   width="209.64294"
   height="74.209892"
   x="-375.68756"
   y="276.43185" /><rect
   style="fill:#a600ff;fill-opacity:0"
   id="rect4044"
   width="391.45718"
   height="20.407721"
   x="-224.48492"
   y="288.49097" /><rect
   style="fill:#a600ff;fill-opacity:0"
   id="rect4046"
   width="340.43787"
   height="75.137512"
   x="183.66948"
   y="371.04947" /><rect
   style="fill:#a600ff;fill-opacity:0"
   id="rect4048"
   width="31.539204"
   height="94.617615"
   x="324.66827"
   y="313.5368" /><rect
   style="fill:#a600ff;fill-opacity:0"
   id="rect4050"
   width="465.66708"
   height="55.657417"
   x="85.341377"
   y="280.14233" /><rect
   style="fill:#a600ff;fill-opacity:0"
   id="rect4052"
   width="551.00836"
   height="20.40777"
   x="16.697226"
   y="189.23521"
   ry="9.7400732"
   rx="0" /></svg>