<?xml version="1.0" encoding="UTF-8" standalone="no"?>
<!-- Generator: Adobe Illustrator 16.0.1, SVG Export Plug-In . SVG Version: 6.00 Build 0)  -->

<svg
   xmlns:dc="http://purl.org/dc/elements/1.1/"
   xmlns:cc="http://creativecommons.org/ns#"
   xmlns:rdf="http://www.w3.org/1999/02/22-rdf-syntax-ns#"
   xmlns:svg="http://www.w3.org/2000/svg"
   xmlns="http://www.w3.org/2000/svg"
   xmlns:sodipodi="http://sodipodi.sourceforge.net/DTD/sodipodi-0.dtd"
   xmlns:inkscape="http://www.inkscape.org/namespaces/inkscape"
   version="1.1"
   id="Layer_1"
   x="0px"
   y="0px"
   width="589px"
   height="769px"
   viewBox="0 0 589 769"
   enable-background="new 0 0 589 769"
   xml:space="preserve"
   inkscape:version="0.48.2 r9819"
   sodipodi:docname="inside_cover.svg"><metadata
   id="metadata3235"><rdf:RDF><cc:Work
       rdf:about=""><dc:format>image/svg+xml</dc:format><dc:type
         rdf:resource="http://purl.org/dc/dcmitype/StillImage" /></cc:Work></rdf:RDF></metadata><defs
   id="defs3233" /><sodipodi:namedview
   pagecolor="#ffffff"
   bordercolor="#666666"
   borderopacity="1"
   objecttolerance="10"
   gridtolerance="10"
   guidetolerance="10"
   inkscape:pageopacity="0"
   inkscape:pageshadow="2"
   inkscape:window-width="1920"
   inkscape:window-height="1018"
   id="namedview3231"
   showgrid="false"
   inkscape:zoom="1.0780234"
   inkscape:cx="294.5"
   inkscape:cy="532.91978"
   inkscape:window-x="-8"
   inkscape:window-y="-8"
   inkscape:window-maximized="1"
   inkscape:current-layer="Layer_1" />
<rect
   x="0"
   y="0"
   fill="#FFFFFF"
   width="589"
   height="769"
   id="rect3112" />
<rect
   x="26"
   y="684"
   fill="#FFFFFF"
   width="448"
   height="7"
   id="rect3114" />


<g
   id="g3120"
   transform="translate(0,40)">
	<g
   id="g3122">
		<path
   d="m 64.665,357.723 c -4.399,-3.787 -8.825,-9.25 -8.828,-15.96 l 0,0 c -0.001,-3.847 1.546,-8.209 5.271,-12.729 l 0,0 0.203,0.369 c -3.684,4.469 -5.102,8.611 -5.102,12.359 l 0,0 c -0.018,9.799 9.777,17.028 14.7,20.019 l 0,0 c 1.637,0.996 4.064,2.742 4.064,2.742 -0.005,-0.003 -5.906,-3.011 -10.308,-6.8 l 0,0 z"
   id="path3124"
   inkscape:connector-curvature="0"
   style="fill:#cf0a2c" />
	</g>
	<g
   id="g3126">
		<path
   d="m 64.156,326.101 0.281,-0.254 c 7.833,7.197 15.068,8.537 19.459,8.538 l 0,0 c 2.021,0 3.434,-0.288 4.005,-0.434 l 0,0 c 0.19,-0.047 0.285,-0.077 0.285,-0.077 l 0,0 h 10e-4 l -0.169,0.271 c -0.014,0.005 -1.379,0.608 -4.121,0.608 l 0,0 c -4.467,0.007 -11.841,-1.388 -19.741,-8.652 l 0,0 z"
   id="path3128"
   inkscape:connector-curvature="0"
   style="fill:#e82429" />
	</g>
	<g
   id="g3130">
		<path
   d="m 80.925,319.743 c -8.85,-10e-4 -14.775,4.984 -16.109,6.224 l 0,0 c -0.188,0.179 -0.284,0.273 -0.284,0.273 l 0,0 -0.375,-0.14 c 0.019,-0.019 6.487,-6.729 16.771,-6.73 l 0,0 c 5.068,0 10.792,1.569 17.298,6.329 1.125,0.909 3.708,2.966 0.8,0.798 -6.828,-5.08 -12.963,-6.753 -18.101,-6.754 l 0,0 z"
   id="path3132"
   inkscape:connector-curvature="0"
   style="fill:#cf0a2c" />
	</g>
	<g
   id="g3134">
		<path
   d="m 58.965,313.819 c 0,-1.435 0.185,-1.915 0.237,-1.99 0.052,-0.075 0.017,-0.063 0.139,-0.162 0.122,-0.099 0.29,-0.187 0.29,-0.187 -0.006,0.075 -0.103,0.383 -0.165,0.745 l 0,0 c -0.065,0.359 -0.129,0.896 -0.129,1.594 l 0,0 c 0,2.067 0.584,5.501 3.496,9.851 l -0.023,0.035 -0.23,0.287 c -2.953,-4.407 -3.615,-8.036 -3.615,-10.173 l 0,0 z"
   id="path3136"
   inkscape:connector-curvature="0"
   style="fill:#e82429" />
	</g>
	<g
   id="g3138">
		<g
   id="g3140">
			
				<radialGradient
   id="SVGID_1_"
   cx="76.288803"
   cy="337.86841"
   r="22.5005"
   gradientTransform="matrix(1,0,0,-1,-9.3003,659.7983)"
   gradientUnits="userSpaceOnUse">
				<stop
   offset="0"
   style="stop-color:#FFFFFF"
   id="stop3143" />
				<stop
   offset="0.0577"
   style="stop-color:#F9DEE3"
   id="stop3145" />
				<stop
   offset="0.1793"
   style="stop-color:#EC9EAC"
   id="stop3147" />
				<stop
   offset="0.2955"
   style="stop-color:#E2697E"
   id="stop3149" />
				<stop
   offset="0.4032"
   style="stop-color:#DA405B"
   id="stop3151" />
				<stop
   offset="0.5003"
   style="stop-color:#D42241"
   id="stop3153" />
				<stop
   offset="0.6213"
   style="stop-color:#D01032"
   id="stop3155" />
				<stop
   offset="0.6763"
   style="stop-color:#C71032"
   id="stop3157" />
				<stop
   offset="0.7659"
   style="stop-color:#AF0E30"
   id="stop3159" />
				<stop
   offset="0.879"
   style="stop-color:#870C2E"
   id="stop3161" />
				<stop
   offset="1"
   style="stop-color:#550A2C"
   id="stop3163" />
			</radialGradient>
			<path
   d="m 65.999,320.09 c 3.979,-4.063 10.117,-6.755 16.813,-7.198 l 0.111,-0.059 c -3.382,-3.218 -7.488,-4.755 -12.526,-4.755 -4.102,0 -7.885,1.324 -10.979,3.548 -0.985,3.526 0.786,8.563 3.14,12.088 1.037,-1.179 2.335,-2.495 3.441,-3.624 z m -12.37,-1.12 c -1.187,2.468 -2.086,5.04 -2.086,7.961 0,4.694 1.729,8.981 4.567,12.282 0.249,-4.754 1.54,-8.339 3.382,-11.345 -2.636,-2.431 -4.636,-5.351 -5.863,-8.898 z m 13.094,13.491 c -1.879,-0.722 -3.778,-1.805 -5.555,-3.175 -2.535,3.042 -4.312,6.364 -4.919,10.078 3.455,3.93 8.477,6.779 14.121,6.779 7.886,0 14.873,-5.068 17.687,-11.94 -8.659,3.101 -15.032,0.678 -21.334,-1.742 z m 21.644,-11.477 c -0.403,-1.158 -9.981,-3.145 -18.66,1.383 -2.461,1.283 -3.507,2.212 -5.312,3.745 0.546,0.617 1.188,1.131 1.674,1.507 7.643,5.883 14.782,7.825 21.816,6.528 l 0.223,-0.111 c 0.844,-2.136 1.283,-4.649 1.283,-7.086 0.004,-1.609 -0.479,-4.4 -1.024,-5.966 z"
   id="path3165"
   style="fill:url(#SVGID_1_)"
   inkscape:connector-curvature="0" />
		</g>
	</g>
	<path
   d="m 92.271,341.853 c 0.063,-0.307 0.124,-0.754 0.193,-1.353 0.826,-0.208 1.543,-0.353 2.149,-0.43 0.609,-0.077 1.203,-0.117 1.781,-0.117 0.62,0 1.199,0.06 1.741,0.171 0.54,0.113 0.99,0.297 1.347,0.554 0.358,0.255 0.599,0.546 0.712,0.876 0.117,0.33 0.179,0.683 0.179,1.062 0,0.473 -0.035,1.268 -0.104,2.385 -0.07,1.116 -0.123,2.148 -0.161,3.1 -0.036,0.945 -0.054,1.792 -0.054,2.532 -0.375,-0.014 -0.682,-0.021 -0.918,-0.021 -0.223,0 -0.539,0.007 -0.949,0.021 l 0.21,-2.813 0.151,-3.329 c -0.24,0.188 -0.42,0.317 -0.54,0.393 -0.12,0.077 -0.256,0.146 -0.406,0.215 -0.148,0.063 -0.314,0.127 -0.5,0.186 -0.182,0.059 -0.535,0.16 -1.059,0.305 -0.524,0.146 -0.897,0.256 -1.116,0.33 -0.473,0.151 -0.846,0.306 -1.121,0.453 -0.274,0.152 -0.504,0.317 -0.688,0.496 -0.188,0.179 -0.316,0.358 -0.395,0.538 -0.091,0.22 -0.134,0.45 -0.134,0.691 0,0.368 0.108,0.692 0.327,0.97 0.218,0.272 0.492,0.466 0.823,0.572 0.329,0.104 0.729,0.157 1.19,0.157 0.287,0 0.586,-0.02 0.9,-0.062 0.313,-0.042 0.729,-0.15 1.258,-0.324 -0.093,0.268 -0.201,0.672 -0.321,1.222 -0.5,0.103 -0.908,0.162 -1.222,0.188 -0.316,0.025 -0.613,0.037 -0.896,0.037 -0.938,0 -1.669,-0.11 -2.194,-0.33 -0.528,-0.219 -0.92,-0.554 -1.185,-1.004 -0.261,-0.45 -0.39,-0.939 -0.39,-1.468 0,-0.312 0.046,-0.596 0.138,-0.854 0.096,-0.261 0.221,-0.498 0.377,-0.712 0.158,-0.211 0.385,-0.425 0.676,-0.639 0.292,-0.212 0.599,-0.391 0.917,-0.524 0.318,-0.138 0.69,-0.271 1.117,-0.407 0.428,-0.134 1.108,-0.313 2.051,-0.542 0.303,-0.064 0.561,-0.138 0.771,-0.21 0.213,-0.07 0.403,-0.144 0.567,-0.211 0.165,-0.065 0.31,-0.146 0.433,-0.242 0.123,-0.092 0.237,-0.203 0.34,-0.34 0.104,-0.134 0.18,-0.269 0.229,-0.403 0.048,-0.141 0.068,-0.274 0.068,-0.412 0,-0.334 -0.106,-0.621 -0.328,-0.859 -0.221,-0.239 -0.507,-0.406 -0.858,-0.501 -0.354,-0.096 -0.771,-0.143 -1.25,-0.143 -0.446,0 -0.906,0.032 -1.375,0.104 -0.471,0.072 -0.875,0.156 -1.216,0.254 -0.334,0.095 -0.757,0.241 -1.265,0.438 z"
   id="path3167"
   inkscape:connector-curvature="0" />
	<path
   d="m 101.35,350.631 2.76,-3.692 1.393,-1.899 -3.089,-4.824 c 0.505,0.01 0.876,0.013 1.107,0.013 0.319,0 0.654,-0.003 1.007,-0.013 0.376,0.729 1.112,1.985 2.205,3.773 1.33,-1.885 2.195,-3.143 2.6,-3.773 0.358,0.01 0.691,0.013 1,0.013 0.276,0 0.615,-0.003 1.021,-0.013 l -1.749,2.314 c -0.166,0.213 -0.771,1.035 -1.82,2.468 0.786,1.282 1.442,2.322 1.973,3.116 l 1.631,2.52 c -0.416,-0.014 -0.758,-0.021 -1.031,-0.021 -0.315,0 -0.679,0.007 -1.08,0.021 -0.352,-0.686 -0.792,-1.459 -1.319,-2.319 l -1.374,-2.24 -1.267,1.797 c -0.719,1.014 -1.346,1.938 -1.879,2.764 -0.408,-0.014 -0.739,-0.021 -0.994,-0.021 -0.291,-0.004 -0.653,0.003 -1.095,0.016 z"
   id="path3169"
   inkscape:connector-curvature="0"
   style="fill:#cf0a2c" />
	<path
   d="m 115.702,350.631 -0.485,-1.489 -3.203,-8.929 c 0.38,0.01 0.689,0.013 0.923,0.013 0.225,0 0.505,-0.003 0.854,-0.013 l 0.903,2.769 2.097,6.058 3.233,-8.824 c 0.376,0.01 0.695,0.013 0.962,0.013 0.286,0 0.601,-0.003 0.94,-0.013 l 2.388,8.824 2.862,-6.829 0.798,-1.995 c 0.374,0.01 0.662,0.013 0.862,0.013 l 0.894,-0.013 -3.456,7.756 -1.127,2.662 c -0.346,-0.014 -0.664,-0.021 -0.955,-0.021 -0.297,0 -0.646,0.007 -1.046,0.021 l -1.91,-7.219 c -0.126,-0.474 -0.257,-0.94 -0.396,-1.409 l -0.207,0.534 c -0.063,0.152 -0.202,0.532 -0.421,1.145 l -2.177,5.923 c -0.104,0.279 -0.227,0.624 -0.361,1.026 -0.354,-0.014 -0.665,-0.021 -0.945,-0.021 -0.301,-0.002 -0.644,0.005 -1.027,0.018 z"
   id="path3171"
   inkscape:connector-curvature="0" />
	<path
   d="m 131.26,341.853 c 0.061,-0.307 0.125,-0.754 0.193,-1.353 0.823,-0.208 1.543,-0.353 2.15,-0.43 0.608,-0.077 1.203,-0.117 1.781,-0.117 0.62,0 1.199,0.06 1.74,0.171 0.54,0.113 0.986,0.297 1.348,0.554 0.356,0.255 0.595,0.546 0.712,0.876 0.118,0.33 0.176,0.683 0.176,1.062 0,0.473 -0.033,1.268 -0.104,2.385 -0.069,1.116 -0.123,2.148 -0.159,3.1 -0.037,0.945 -0.056,1.792 -0.056,2.532 -0.375,-0.014 -0.684,-0.021 -0.917,-0.021 -0.226,0 -0.539,0.007 -0.949,0.021 l 0.21,-2.813 0.151,-3.329 c -0.241,0.188 -0.421,0.317 -0.541,0.393 -0.12,0.077 -0.255,0.146 -0.406,0.215 -0.15,0.063 -0.317,0.127 -0.498,0.186 -0.183,0.059 -0.536,0.16 -1.063,0.305 -0.522,0.146 -0.896,0.256 -1.113,0.33 -0.477,0.151 -0.85,0.306 -1.122,0.453 -0.273,0.152 -0.504,0.317 -0.689,0.496 -0.185,0.179 -0.313,0.358 -0.391,0.538 -0.089,0.22 -0.133,0.45 -0.133,0.691 0,0.368 0.106,0.692 0.327,0.97 0.217,0.272 0.489,0.466 0.821,0.572 0.33,0.104 0.729,0.157 1.191,0.157 0.286,0 0.587,-0.02 0.896,-0.062 0.314,-0.042 0.734,-0.15 1.263,-0.324 -0.098,0.268 -0.202,0.672 -0.323,1.222 -0.5,0.103 -0.907,0.162 -1.222,0.188 -0.314,0.025 -0.612,0.037 -0.895,0.037 -0.938,0 -1.671,-0.11 -2.197,-0.33 -0.524,-0.219 -0.921,-0.554 -1.182,-1.004 -0.261,-0.45 -0.39,-0.939 -0.39,-1.468 0,-0.312 0.046,-0.596 0.139,-0.854 0.093,-0.258 0.217,-0.498 0.375,-0.712 0.157,-0.211 0.383,-0.425 0.675,-0.639 0.291,-0.212 0.6,-0.391 0.917,-0.524 0.319,-0.138 0.692,-0.271 1.119,-0.407 0.425,-0.134 1.109,-0.313 2.05,-0.542 0.305,-0.064 0.562,-0.138 0.772,-0.21 0.212,-0.07 0.4,-0.144 0.565,-0.211 0.163,-0.065 0.31,-0.146 0.434,-0.242 0.124,-0.092 0.236,-0.203 0.339,-0.34 0.103,-0.134 0.179,-0.269 0.228,-0.403 0.05,-0.141 0.072,-0.274 0.072,-0.412 0,-0.334 -0.107,-0.621 -0.33,-0.859 -0.22,-0.239 -0.506,-0.406 -0.857,-0.501 -0.354,-0.096 -0.771,-0.143 -1.251,-0.143 -0.446,0 -0.905,0.032 -1.375,0.104 -0.474,0.072 -0.875,0.156 -1.217,0.254 -0.333,0.095 -0.757,0.241 -1.264,0.438 z"
   id="path3173"
   inkscape:connector-curvature="0" />
	<path
   d="m 140.05,355.39 c -0.044,-0.583 -0.098,-1.076 -0.161,-1.479 0.344,0.162 0.665,0.273 0.96,0.331 0.295,0.057 0.548,0.086 0.754,0.086 0.271,0 0.53,-0.048 0.784,-0.144 0.254,-0.099 0.461,-0.226 0.619,-0.379 0.159,-0.158 0.327,-0.375 0.502,-0.652 0.174,-0.277 0.36,-0.602 0.556,-0.975 0.194,-0.373 0.382,-0.791 0.563,-1.251 l -2.196,-6.248 -1.605,-4.469 c 0.514,0.017 0.854,0.021 1.021,0.021 0.197,0 0.516,-0.007 0.958,-0.021 0.108,0.479 0.199,0.849 0.273,1.102 0.072,0.254 0.233,0.77 0.483,1.551 l 1.53,4.715 c 0.168,0.535 0.338,1.11 0.506,1.728 l 1.165,-2.833 2.154,-5.023 c 0.062,-0.151 0.122,-0.306 0.182,-0.468 0.058,-0.16 0.149,-0.416 0.272,-0.768 0.438,0.017 0.74,0.021 0.915,0.021 0.144,0 0.462,-0.007 0.953,-0.021 -0.269,0.609 -0.917,2.031 -1.943,4.267 l -3.821,8.477 c -0.269,0.568 -0.513,0.999 -0.729,1.294 -0.183,0.233 -0.372,0.438 -0.579,0.606 -0.166,0.144 -0.354,0.267 -0.561,0.37 -0.255,0.124 -0.527,0.219 -0.826,0.287 -0.321,0.065 -0.651,0.103 -0.99,0.103 -0.535,-0.003 -1.113,-0.078 -1.739,-0.228 z"
   id="path3175"
   inkscape:connector-curvature="0" />
	<g
   id="g3177">
		<path
   d="m 75.876,359.094 0.033,-0.404 c 0.005,-0.073 0.011,-0.208 0.021,-0.408 l 0.104,-2.448 0.043,-1.668 c 0.146,0.003 0.26,0.003 0.341,0.003 0.084,0 0.188,0 0.317,-0.003 -0.03,0.312 -0.063,0.754 -0.089,1.334 0.253,-0.057 0.46,-0.095 0.622,-0.112 0.161,-0.021 0.32,-0.03 0.479,-0.03 0.304,0 0.568,0.038 0.802,0.115 0.229,0.075 0.422,0.202 0.573,0.383 0.147,0.179 0.256,0.375 0.316,0.588 0.063,0.214 0.097,0.439 0.097,0.683 0,0.273 -0.038,0.539 -0.113,0.795 -0.077,0.26 -0.189,0.484 -0.342,0.686 -0.154,0.197 -0.339,0.343 -0.561,0.435 -0.22,0.091 -0.459,0.139 -0.719,0.139 -0.14,0 -0.271,-0.017 -0.393,-0.048 -0.123,-0.026 -0.233,-0.068 -0.332,-0.124 -0.102,-0.053 -0.186,-0.111 -0.251,-0.181 -0.068,-0.066 -0.125,-0.135 -0.17,-0.203 -0.047,-0.064 -0.097,-0.159 -0.149,-0.276 l -0.01,0.75 c -0.145,-0.006 -0.239,-0.009 -0.299,-0.009 -0.038,-0.004 -0.146,-0.002 -0.32,0.003 z m 0.736,-3.111 c -0.017,0.396 -0.026,0.663 -0.033,0.791 -0.01,0.128 -0.013,0.28 -0.013,0.458 0,0.378 0.042,0.668 0.129,0.87 0.087,0.203 0.219,0.354 0.392,0.458 0.172,0.104 0.368,0.153 0.586,0.153 0.252,0 0.47,-0.063 0.649,-0.188 0.186,-0.127 0.323,-0.321 0.429,-0.582 0.1,-0.261 0.147,-0.532 0.147,-0.813 0,-0.396 -0.104,-0.716 -0.313,-0.959 -0.21,-0.24 -0.527,-0.362 -0.949,-0.362 -0.147,0 -0.299,0.013 -0.456,0.038 -0.158,0.022 -0.346,0.067 -0.568,0.136 z"
   id="path3179"
   inkscape:connector-curvature="0"
   style="fill:#9ea0a3" />
		<path
   d="m 83.662,359.094 c -0.118,-0.007 -0.222,-0.01 -0.306,-0.01 -0.097,0 -0.194,0.002 -0.299,0.01 l 0.021,-0.696 c -0.062,0.105 -0.108,0.189 -0.15,0.251 -0.042,0.059 -0.094,0.117 -0.157,0.173 -0.062,0.057 -0.127,0.104 -0.19,0.143 -0.066,0.039 -0.146,0.073 -0.233,0.104 -0.089,0.031 -0.193,0.056 -0.313,0.077 -0.117,0.021 -0.244,0.031 -0.381,0.031 -0.293,0 -0.543,-0.049 -0.75,-0.137 -0.209,-0.088 -0.363,-0.215 -0.473,-0.379 -0.11,-0.164 -0.16,-0.387 -0.16,-0.672 0,-0.043 0.002,-0.117 0.006,-0.22 0.005,-0.104 0.015,-0.238 0.021,-0.404 l 0.057,-1.203 0.01,-0.387 c 0.003,-0.088 0.006,-0.202 0.006,-0.339 l 0.338,0.003 c 0.065,0 0.174,0 0.313,-0.003 -0.035,0.421 -0.063,0.882 -0.097,1.383 -0.031,0.5 -0.046,0.821 -0.046,0.96 0,0.212 0.032,0.382 0.104,0.509 0.069,0.125 0.186,0.227 0.344,0.292 0.158,0.069 0.343,0.104 0.542,0.104 0.18,0 0.351,-0.031 0.515,-0.098 0.14,-0.055 0.258,-0.13 0.353,-0.224 0.104,-0.104 0.191,-0.237 0.261,-0.4 0.053,-0.118 0.092,-0.273 0.114,-0.467 0.021,-0.137 0.034,-0.384 0.053,-0.741 0.021,-0.434 0.031,-0.872 0.041,-1.318 l 0.333,0.003 c 0.072,0 0.174,0 0.304,-0.003 -0.033,0.434 -0.072,1.092 -0.118,1.975 -0.039,0.487 -0.056,1.048 -0.063,1.683 z"
   id="path3181"
   inkscape:connector-curvature="0"
   style="fill:#9ea0a3" />
		<path
   d="m 84.459,359.029 -0.021,-0.268 c 0,-0.029 -0.009,-0.122 -0.024,-0.278 0.368,0.161 0.714,0.241 1.026,0.241 0.164,0 0.306,-0.022 0.416,-0.064 0.113,-0.043 0.199,-0.104 0.256,-0.189 0.059,-0.088 0.084,-0.176 0.084,-0.267 0,-0.051 -0.008,-0.101 -0.021,-0.148 -0.019,-0.053 -0.039,-0.102 -0.07,-0.146 -0.032,-0.047 -0.079,-0.099 -0.14,-0.154 -0.063,-0.057 -0.19,-0.163 -0.385,-0.316 -0.194,-0.156 -0.344,-0.278 -0.442,-0.367 -0.101,-0.088 -0.188,-0.178 -0.258,-0.271 -0.07,-0.092 -0.124,-0.186 -0.157,-0.276 -0.034,-0.096 -0.05,-0.189 -0.05,-0.286 0,-0.154 0.048,-0.303 0.146,-0.448 0.101,-0.144 0.239,-0.252 0.425,-0.322 0.187,-0.068 0.401,-0.104 0.649,-0.104 0.278,0 0.583,0.032 0.917,0.097 0.009,0.189 0.021,0.364 0.032,0.522 -0.271,-0.113 -0.538,-0.169 -0.801,-0.169 -0.146,0 -0.275,0.019 -0.397,0.056 -0.122,0.037 -0.211,0.093 -0.269,0.167 -0.059,0.075 -0.084,0.156 -0.084,0.245 0,0.058 0.009,0.114 0.025,0.167 0.021,0.052 0.056,0.108 0.104,0.171 0.049,0.062 0.105,0.121 0.179,0.182 0.072,0.063 0.209,0.175 0.419,0.341 0.209,0.165 0.354,0.287 0.429,0.366 0.079,0.079 0.146,0.16 0.2,0.245 0.059,0.084 0.099,0.168 0.121,0.251 0.025,0.083 0.039,0.167 0.039,0.254 0,0.168 -0.051,0.325 -0.15,0.472 -0.099,0.145 -0.249,0.256 -0.444,0.335 -0.197,0.079 -0.419,0.119 -0.666,0.119 -0.104,0 -0.229,-0.009 -0.365,-0.021 -0.14,-0.014 -0.258,-0.029 -0.357,-0.046 -0.099,-0.029 -0.221,-0.056 -0.366,-0.091 z"
   id="path3183"
   inkscape:connector-curvature="0"
   style="fill:#9ea0a3" />
		<path
   d="m 87.583,359.094 0.063,-0.91 0.073,-1.555 0.03,-1.192 0.329,0.003 0.32,-0.003 c -0.025,0.376 -0.054,0.768 -0.073,1.179 -0.023,0.41 -0.042,0.858 -0.059,1.345 -0.014,0.486 -0.021,0.864 -0.021,1.136 -0.152,-0.007 -0.262,-0.01 -0.324,-0.01 -0.052,0 -0.168,0.002 -0.338,0.007 z m 0.166,-4.442 c 0.007,-0.225 0.011,-0.396 0.011,-0.509 0.133,0.004 0.25,0.007 0.351,0.007 0.128,0 0.245,-0.003 0.351,-0.007 -0.005,0.071 -0.015,0.243 -0.022,0.509 -0.131,-0.002 -0.243,-0.004 -0.336,-0.004 -0.097,0 -0.215,0.002 -0.355,0.004 z"
   id="path3185"
   inkscape:connector-curvature="0"
   style="fill:#9ea0a3" />
		<path
   d="m 89.205,359.094 c 0.115,-1.512 0.18,-2.729 0.185,-3.657 l 0.322,0.003 c 0.08,0 0.184,0 0.313,-0.003 l -0.047,0.724 c 0.063,-0.101 0.107,-0.179 0.146,-0.229 0.033,-0.057 0.084,-0.111 0.145,-0.174 0.063,-0.061 0.13,-0.114 0.212,-0.168 0.083,-0.052 0.181,-0.095 0.29,-0.13 0.111,-0.035 0.225,-0.061 0.337,-0.078 0.114,-0.017 0.229,-0.022 0.341,-0.022 0.206,0 0.406,0.022 0.602,0.076 0.188,0.051 0.35,0.133 0.474,0.247 0.124,0.111 0.207,0.24 0.249,0.384 0.042,0.142 0.063,0.294 0.063,0.458 0,0.031 0,0.092 -0.002,0.18 -0.003,0.088 -0.011,0.206 -0.018,0.353 l -0.072,1.512 c -0.007,0.145 -0.011,0.321 -0.014,0.53 -0.104,-0.007 -0.209,-0.01 -0.306,-0.01 -0.118,0 -0.229,0.002 -0.33,0.01 0.023,-0.291 0.043,-0.571 0.057,-0.843 l 0.047,-0.841 c 0.019,-0.289 0.023,-0.506 0.023,-0.651 0,-0.215 -0.037,-0.385 -0.108,-0.512 -0.069,-0.126 -0.188,-0.224 -0.347,-0.292 -0.159,-0.065 -0.338,-0.104 -0.536,-0.104 -0.277,0 -0.52,0.063 -0.719,0.199 -0.183,0.123 -0.324,0.297 -0.427,0.521 -0.07,0.162 -0.12,0.4 -0.147,0.716 -0.038,0.377 -0.063,0.979 -0.077,1.803 -0.135,-0.007 -0.236,-0.01 -0.313,-0.01 -0.078,10e-4 -0.191,0.003 -0.343,0.008 z"
   id="path3187"
   inkscape:connector-curvature="0"
   style="fill:#9ea0a3" />
		<path
   d="m 96.672,358.515 c -0.029,0.136 -0.061,0.307 -0.088,0.514 -0.23,0.057 -0.434,0.095 -0.604,0.115 -0.17,0.02 -0.338,0.027 -0.507,0.027 -0.301,0 -0.57,-0.034 -0.81,-0.106 -0.241,-0.072 -0.445,-0.198 -0.617,-0.376 -0.17,-0.183 -0.292,-0.385 -0.368,-0.616 -0.075,-0.231 -0.112,-0.476 -0.112,-0.733 0,-0.355 0.069,-0.688 0.206,-0.994 0.14,-0.311 0.346,-0.551 0.619,-0.728 0.276,-0.175 0.625,-0.263 1.049,-0.263 0.222,0 0.431,0.032 0.628,0.095 0.201,0.064 0.365,0.161 0.499,0.291 0.135,0.129 0.235,0.29 0.31,0.481 0.072,0.188 0.106,0.396 0.106,0.625 0,0.087 -0.008,0.17 -0.021,0.253 h -2.744 c -0.01,0.132 -0.016,0.23 -0.016,0.303 0,0.252 0.052,0.484 0.155,0.697 0.105,0.213 0.264,0.374 0.47,0.48 0.206,0.11 0.441,0.165 0.712,0.165 0.313,0.004 0.69,-0.075 1.133,-0.23 z m -2.427,-1.711 h 2.146 c -0.002,-0.15 -0.011,-0.271 -0.028,-0.354 -0.017,-0.083 -0.048,-0.17 -0.094,-0.26 -0.045,-0.089 -0.105,-0.167 -0.185,-0.233 -0.08,-0.063 -0.172,-0.112 -0.281,-0.147 -0.11,-0.035 -0.228,-0.055 -0.356,-0.055 -0.136,0 -0.266,0.021 -0.39,0.061 -0.124,0.04 -0.233,0.091 -0.328,0.158 -0.095,0.063 -0.175,0.145 -0.242,0.231 -0.063,0.089 -0.112,0.18 -0.146,0.263 -0.033,0.082 -0.065,0.195 -0.096,0.336 z"
   id="path3189"
   inkscape:connector-curvature="0"
   style="fill:#9ea0a3" />
		<path
   d="m 97.424,359.029 -0.021,-0.268 c 0,-0.029 -0.008,-0.122 -0.025,-0.278 0.373,0.161 0.715,0.241 1.026,0.241 0.164,0 0.305,-0.022 0.416,-0.064 0.114,-0.043 0.199,-0.104 0.258,-0.189 0.056,-0.088 0.085,-0.176 0.085,-0.267 0,-0.051 -0.01,-0.101 -0.023,-0.148 -0.016,-0.053 -0.041,-0.102 -0.071,-0.146 -0.028,-0.047 -0.078,-0.099 -0.14,-0.154 -0.063,-0.057 -0.189,-0.163 -0.384,-0.316 -0.195,-0.156 -0.346,-0.278 -0.442,-0.367 -0.101,-0.088 -0.186,-0.178 -0.258,-0.271 -0.072,-0.092 -0.124,-0.186 -0.158,-0.276 -0.035,-0.096 -0.052,-0.189 -0.052,-0.286 0,-0.154 0.049,-0.303 0.146,-0.448 0.1,-0.144 0.239,-0.252 0.426,-0.322 0.185,-0.068 0.398,-0.104 0.647,-0.104 0.277,0 0.584,0.032 0.917,0.097 0.008,0.189 0.021,0.364 0.032,0.522 -0.271,-0.113 -0.537,-0.169 -0.801,-0.169 -0.145,0 -0.274,0.019 -0.397,0.056 -0.122,0.037 -0.21,0.093 -0.268,0.167 -0.06,0.075 -0.085,0.156 -0.085,0.245 0,0.058 0.009,0.114 0.025,0.167 0.021,0.052 0.058,0.108 0.104,0.171 0.05,0.062 0.109,0.121 0.18,0.182 0.07,0.063 0.209,0.175 0.419,0.341 0.209,0.165 0.354,0.287 0.432,0.366 0.075,0.079 0.144,0.16 0.197,0.245 0.058,0.084 0.099,0.168 0.122,0.251 0.025,0.083 0.038,0.167 0.038,0.254 0,0.168 -0.05,0.325 -0.148,0.472 -0.102,0.145 -0.249,0.256 -0.446,0.335 -0.197,0.079 -0.419,0.119 -0.665,0.119 -0.104,0 -0.229,-0.009 -0.366,-0.021 -0.14,-0.014 -0.259,-0.029 -0.354,-0.046 -0.1,-0.029 -0.221,-0.056 -0.366,-0.091 z"
   id="path3191"
   inkscape:connector-curvature="0"
   style="fill:#9ea0a3" />
		<path
   d="m 100.355,359.029 -0.02,-0.268 c 0,-0.029 -0.009,-0.122 -0.027,-0.278 0.371,0.161 0.714,0.241 1.028,0.241 0.164,0 0.302,-0.022 0.415,-0.064 0.112,-0.043 0.199,-0.104 0.256,-0.189 0.055,-0.088 0.084,-0.176 0.084,-0.267 0,-0.051 -0.008,-0.101 -0.023,-0.148 -0.016,-0.053 -0.039,-0.102 -0.068,-0.146 -0.032,-0.047 -0.078,-0.099 -0.143,-0.154 -0.061,-0.057 -0.188,-0.163 -0.384,-0.316 -0.194,-0.156 -0.342,-0.278 -0.442,-0.367 -0.101,-0.088 -0.186,-0.178 -0.258,-0.271 -0.068,-0.092 -0.124,-0.186 -0.158,-0.276 -0.032,-0.096 -0.051,-0.189 -0.051,-0.286 0,-0.154 0.048,-0.303 0.147,-0.448 0.098,-0.144 0.239,-0.252 0.424,-0.322 0.185,-0.068 0.401,-0.104 0.65,-0.104 0.275,0 0.583,0.032 0.917,0.097 0.007,0.189 0.019,0.364 0.029,0.522 -0.271,-0.113 -0.538,-0.169 -0.802,-0.169 -0.142,0 -0.274,0.019 -0.396,0.056 -0.122,0.037 -0.213,0.093 -0.271,0.167 -0.057,0.075 -0.085,0.156 -0.085,0.245 0,0.058 0.01,0.114 0.029,0.167 0.021,0.052 0.053,0.108 0.103,0.171 0.051,0.062 0.11,0.121 0.183,0.182 0.069,0.063 0.21,0.175 0.419,0.341 0.209,0.165 0.352,0.287 0.429,0.366 0.078,0.079 0.144,0.16 0.199,0.245 0.056,0.084 0.097,0.168 0.123,0.251 0.022,0.083 0.038,0.167 0.038,0.254 0,0.168 -0.054,0.325 -0.15,0.472 -0.101,0.145 -0.249,0.256 -0.447,0.335 -0.198,0.079 -0.419,0.119 -0.665,0.119 -0.104,0 -0.227,-0.009 -0.363,-0.021 -0.143,-0.014 -0.262,-0.029 -0.356,-0.046 -0.098,-0.029 -0.219,-0.056 -0.364,-0.091 z"
   id="path3193"
   inkscape:connector-curvature="0"
   style="fill:#9ea0a3" />
		<path
   d="m 103.463,359.094 0.029,-0.666 0.369,0.007 c 0.058,0 0.167,-0.002 0.333,-0.007 -0.009,0.104 -0.015,0.191 -0.018,0.271 l -0.017,0.395 c -0.158,-0.007 -0.271,-0.01 -0.335,-0.01 -0.057,0.003 -0.178,0.005 -0.361,0.01 z"
   id="path3195"
   inkscape:connector-curvature="0"
   style="fill:#9ea0a3" />
		<path
   d="m 106.988,359.094 0.065,-0.91 0.072,-1.555 0.027,-1.192 0.329,0.003 0.323,-0.003 c -0.027,0.376 -0.052,0.768 -0.076,1.179 -0.021,0.41 -0.041,0.858 -0.055,1.345 -0.014,0.487 -0.021,0.864 -0.021,1.136 -0.147,-0.007 -0.258,-0.01 -0.32,-0.01 -0.06,0 -0.176,0.002 -0.344,0.007 z m 0.166,-4.442 c 0.01,-0.225 0.014,-0.396 0.014,-0.509 0.132,0.004 0.25,0.007 0.351,0.007 0.127,0 0.244,-0.003 0.348,-0.007 -0.005,0.071 -0.013,0.243 -0.021,0.509 -0.13,-0.002 -0.243,-0.004 -0.337,-0.004 -0.094,0 -0.216,0.002 -0.355,0.004 z"
   id="path3197"
   inkscape:connector-curvature="0"
   style="fill:#9ea0a3" />
		<path
   d="m 108.609,359.094 c 0.118,-1.512 0.183,-2.729 0.188,-3.657 l 0.324,0.003 c 0.076,0 0.182,0 0.312,-0.003 l -0.048,0.724 c 0.062,-0.101 0.106,-0.179 0.145,-0.229 0.036,-0.057 0.084,-0.111 0.146,-0.174 0.06,-0.061 0.131,-0.114 0.212,-0.168 0.082,-0.052 0.179,-0.095 0.288,-0.13 0.11,-0.035 0.224,-0.061 0.338,-0.078 0.114,-0.017 0.228,-0.022 0.34,-0.022 0.207,0 0.407,0.022 0.602,0.076 0.189,0.051 0.351,0.133 0.474,0.247 0.125,0.111 0.207,0.24 0.249,0.384 0.043,0.142 0.063,0.294 0.063,0.458 0,0.031 -0.002,0.092 -0.004,0.18 -0.003,0.088 -0.007,0.206 -0.015,0.353 l -0.074,1.512 c -0.005,0.145 -0.009,0.321 -0.011,0.53 -0.107,-0.007 -0.211,-0.01 -0.306,-0.01 -0.117,0 -0.229,0.002 -0.33,0.01 0.021,-0.291 0.043,-0.571 0.055,-0.843 l 0.049,-0.841 c 0.017,-0.289 0.022,-0.506 0.022,-0.651 0,-0.215 -0.036,-0.385 -0.108,-0.512 -0.074,-0.126 -0.188,-0.224 -0.348,-0.292 -0.159,-0.065 -0.337,-0.104 -0.535,-0.104 -0.281,0 -0.521,0.063 -0.719,0.199 -0.187,0.123 -0.326,0.297 -0.429,0.521 -0.068,0.162 -0.118,0.4 -0.146,0.716 -0.036,0.377 -0.063,0.979 -0.077,1.803 -0.134,-0.007 -0.238,-0.01 -0.313,-0.01 -0.08,10e-4 -0.193,0.003 -0.344,0.008 z"
   id="path3199"
   inkscape:connector-curvature="0"
   style="fill:#9ea0a3" />
		<path
   d="m 114.925,359.094 0.04,-0.523 c 0.007,-0.111 0.016,-0.286 0.029,-0.523 l 0.087,-2.197 c 0.002,-0.183 0.003,-0.317 0.003,-0.411 0.111,0.003 0.218,0.003 0.311,0.003 0.104,0 0.202,0 0.301,-0.003 l -0.028,0.674 c 0.082,-0.135 0.152,-0.241 0.221,-0.321 0.067,-0.079 0.153,-0.149 0.261,-0.22 0.108,-0.067 0.231,-0.12 0.369,-0.157 0.138,-0.037 0.281,-0.056 0.43,-0.056 0.104,0 0.206,0.012 0.309,0.036 0.1,0.021 0.19,0.059 0.277,0.101 0.085,0.043 0.157,0.094 0.221,0.148 0.063,0.054 0.108,0.113 0.146,0.18 0.038,0.065 0.075,0.159 0.114,0.282 0.146,-0.277 0.33,-0.47 0.55,-0.581 0.22,-0.111 0.466,-0.166 0.737,-0.166 0.173,0 0.341,0.027 0.503,0.083 0.164,0.055 0.291,0.134 0.389,0.238 0.098,0.103 0.16,0.21 0.192,0.32 0.033,0.111 0.049,0.227 0.049,0.337 0,0.115 -0.007,0.288 -0.021,0.521 -0.019,0.229 -0.034,0.583 -0.058,1.055 -0.021,0.474 -0.03,0.867 -0.033,1.185 -0.129,-0.007 -0.229,-0.01 -0.304,-0.01 -0.078,0 -0.195,0.002 -0.347,0.01 0.023,-0.325 0.048,-0.681 0.065,-1.063 l 0.05,-0.895 c 0.013,-0.219 0.018,-0.403 0.018,-0.563 0,-0.14 -0.014,-0.249 -0.043,-0.329 -0.028,-0.078 -0.076,-0.146 -0.139,-0.212 -0.063,-0.063 -0.146,-0.107 -0.236,-0.143 -0.094,-0.032 -0.201,-0.049 -0.321,-0.049 -0.096,0 -0.186,0.011 -0.267,0.029 -0.077,0.021 -0.151,0.058 -0.227,0.101 -0.077,0.046 -0.147,0.103 -0.212,0.17 -0.063,0.063 -0.112,0.138 -0.157,0.221 -0.048,0.084 -0.083,0.188 -0.111,0.3 -0.036,0.146 -0.063,0.322 -0.075,0.532 -0.015,0.224 -0.025,0.519 -0.034,0.884 l -0.022,1.01 c -0.145,-0.004 -0.247,-0.007 -0.318,-0.007 -0.066,0 -0.178,0.002 -0.335,0.007 0.025,-0.297 0.044,-0.604 0.058,-0.919 l 0.044,-0.873 c 0.015,-0.27 0.02,-0.496 0.02,-0.688 0,-0.123 -0.011,-0.227 -0.036,-0.313 -0.022,-0.086 -0.068,-0.161 -0.134,-0.232 -0.066,-0.071 -0.146,-0.125 -0.239,-0.163 -0.093,-0.037 -0.196,-0.056 -0.309,-0.056 -0.121,0 -0.235,0.021 -0.343,0.063 -0.108,0.042 -0.209,0.105 -0.3,0.188 -0.092,0.082 -0.168,0.182 -0.229,0.301 -0.063,0.12 -0.11,0.272 -0.146,0.469 -0.035,0.193 -0.062,0.531 -0.082,1.012 -0.019,0.481 -0.025,0.889 -0.025,1.217 -0.156,-0.006 -0.266,-0.009 -0.32,-0.009 -0.076,-0.002 -0.186,0 -0.343,0.005 z"
   id="path3201"
   inkscape:connector-curvature="0"
   style="fill:#9ea0a3" />
		<path
   d="m 123.082,355.356 c 0.252,0 0.494,0.036 0.722,0.105 0.229,0.072 0.427,0.188 0.595,0.346 0.167,0.154 0.293,0.354 0.38,0.591 0.086,0.239 0.134,0.49 0.134,0.755 0,0.286 -0.05,0.561 -0.144,0.823 -0.092,0.263 -0.222,0.482 -0.389,0.668 -0.168,0.183 -0.373,0.313 -0.614,0.4 -0.241,0.084 -0.501,0.128 -0.778,0.128 -0.257,0 -0.5,-0.036 -0.729,-0.113 -0.229,-0.077 -0.425,-0.197 -0.593,-0.36 -0.167,-0.165 -0.294,-0.365 -0.38,-0.601 -0.09,-0.237 -0.133,-0.486 -0.133,-0.746 0,-0.395 0.08,-0.745 0.238,-1.062 0.159,-0.313 0.395,-0.549 0.701,-0.705 0.308,-0.151 0.639,-0.229 0.99,-0.229 z m -0.016,0.458 c -0.245,0 -0.47,0.062 -0.675,0.184 -0.206,0.122 -0.354,0.31 -0.455,0.556 -0.099,0.244 -0.146,0.516 -0.146,0.806 0,0.254 0.042,0.481 0.123,0.687 0.082,0.203 0.216,0.368 0.399,0.492 0.188,0.125 0.413,0.188 0.675,0.188 0.183,0 0.353,-0.03 0.513,-0.095 0.161,-0.061 0.301,-0.16 0.42,-0.305 0.12,-0.141 0.209,-0.313 0.266,-0.52 0.061,-0.207 0.087,-0.421 0.087,-0.647 0,-0.212 -0.026,-0.41 -0.087,-0.595 -0.057,-0.188 -0.146,-0.334 -0.265,-0.446 -0.118,-0.111 -0.252,-0.188 -0.401,-0.236 -0.15,-0.046 -0.301,-0.069 -0.454,-0.069 z"
   id="path3203"
   inkscape:connector-curvature="0"
   style="fill:#9ea0a3" />
		<path
   d="m 127.456,358.62 c -0.027,0.118 -0.06,0.273 -0.088,0.467 -0.164,0.039 -0.293,0.064 -0.392,0.073 -0.096,0.01 -0.187,0.015 -0.271,0.015 -0.213,0 -0.388,-0.025 -0.52,-0.079 -0.13,-0.057 -0.229,-0.144 -0.3,-0.263 -0.07,-0.12 -0.104,-0.278 -0.104,-0.483 0,-0.026 10e-4,-0.073 0.003,-0.144 0.002,-0.064 0.014,-0.302 0.033,-0.704 l 0.092,-1.614 h -0.481 c 0.009,-0.104 0.021,-0.246 0.025,-0.437 h 0.485 c 0.014,-0.136 0.024,-0.366 0.036,-0.689 0.229,-0.045 0.419,-0.083 0.576,-0.12 -0.017,0.354 -0.026,0.626 -0.028,0.812 h 1 c -0.012,0.152 -0.019,0.296 -0.021,0.437 h -0.998 l -0.095,2.029 -0.003,0.156 c 0,0.175 0.019,0.307 0.059,0.396 0.039,0.088 0.099,0.148 0.178,0.188 0.08,0.038 0.161,0.058 0.248,0.058 0.063,0 0.124,-0.005 0.194,-0.015 0.072,-0.011 0.197,-0.038 0.372,-0.083 z"
   id="path3205"
   inkscape:connector-curvature="0"
   style="fill:#9ea0a3" />
		<path
   d="m 128.004,359.094 0.063,-0.91 0.072,-1.555 0.031,-1.192 0.328,0.003 0.32,-0.003 c -0.024,0.376 -0.053,0.768 -0.073,1.179 -0.023,0.41 -0.042,0.858 -0.058,1.345 -0.014,0.487 -0.021,0.864 -0.021,1.136 -0.15,-0.007 -0.258,-0.01 -0.323,-0.01 -0.054,0 -0.17,0.002 -0.339,0.007 z m 0.166,-4.442 c 0.006,-0.225 0.01,-0.396 0.01,-0.509 0.133,0.004 0.25,0.007 0.352,0.007 0.13,0 0.244,-0.003 0.351,-0.007 -0.005,0.071 -0.012,0.243 -0.022,0.509 -0.13,-0.002 -0.24,-0.004 -0.336,-0.004 -0.096,0 -0.216,0.002 -0.355,0.004 z"
   id="path3207"
   inkscape:connector-curvature="0"
   style="fill:#9ea0a3" />
		<path
   d="m 131.464,355.356 c 0.253,0 0.494,0.036 0.723,0.105 0.229,0.072 0.426,0.188 0.594,0.346 0.167,0.154 0.293,0.354 0.383,0.591 0.087,0.239 0.129,0.49 0.129,0.755 0,0.286 -0.045,0.561 -0.141,0.823 -0.094,0.262 -0.223,0.482 -0.389,0.668 -0.169,0.183 -0.373,0.313 -0.615,0.4 -0.243,0.084 -0.501,0.128 -0.774,0.128 -0.26,0 -0.5,-0.036 -0.729,-0.113 -0.229,-0.077 -0.428,-0.197 -0.594,-0.36 -0.167,-0.165 -0.294,-0.365 -0.381,-0.601 -0.086,-0.237 -0.13,-0.486 -0.13,-0.746 0,-0.395 0.079,-0.745 0.236,-1.062 0.158,-0.313 0.394,-0.549 0.699,-0.705 0.309,-0.151 0.639,-0.229 0.989,-0.229 z m -0.016,0.458 c -0.242,0 -0.47,0.062 -0.675,0.184 -0.205,0.122 -0.354,0.31 -0.455,0.556 -0.098,0.244 -0.146,0.516 -0.146,0.806 0,0.254 0.04,0.481 0.122,0.687 0.081,0.203 0.215,0.368 0.4,0.492 0.188,0.125 0.411,0.188 0.678,0.188 0.179,0 0.35,-0.03 0.51,-0.095 0.161,-0.061 0.301,-0.16 0.42,-0.305 0.12,-0.141 0.209,-0.313 0.266,-0.52 0.061,-0.207 0.086,-0.421 0.086,-0.647 0,-0.212 -0.025,-0.41 -0.086,-0.595 -0.057,-0.188 -0.145,-0.334 -0.264,-0.446 -0.118,-0.111 -0.252,-0.188 -0.402,-0.236 -0.149,-0.046 -0.301,-0.069 -0.454,-0.069 z"
   id="path3209"
   inkscape:connector-curvature="0"
   style="fill:#9ea0a3" />
		<path
   d="m 133.974,359.094 c 0.117,-1.512 0.178,-2.729 0.183,-3.657 l 0.323,0.003 c 0.08,0 0.187,0 0.313,-0.003 l -0.048,0.724 c 0.061,-0.101 0.105,-0.179 0.145,-0.229 0.036,-0.057 0.083,-0.111 0.146,-0.174 0.06,-0.061 0.131,-0.114 0.212,-0.168 0.083,-0.052 0.178,-0.095 0.289,-0.13 0.107,-0.035 0.223,-0.061 0.336,-0.078 0.112,-0.017 0.228,-0.022 0.342,-0.022 0.207,0 0.406,0.022 0.598,0.076 0.193,0.051 0.354,0.133 0.478,0.247 0.122,0.111 0.207,0.24 0.249,0.384 0.042,0.142 0.063,0.294 0.063,0.458 0,0.031 -0.001,0.092 -0.004,0.18 -0.003,0.088 -0.007,0.206 -0.015,0.353 l -0.076,1.512 c -0.004,0.145 -0.007,0.321 -0.01,0.53 -0.107,-0.007 -0.21,-0.01 -0.309,-0.01 -0.117,0 -0.228,0.002 -0.33,0.01 0.024,-0.291 0.044,-0.571 0.059,-0.843 l 0.049,-0.841 c 0.014,-0.289 0.021,-0.506 0.021,-0.651 0,-0.215 -0.034,-0.385 -0.106,-0.512 -0.072,-0.126 -0.188,-0.224 -0.349,-0.292 -0.157,-0.065 -0.337,-0.104 -0.532,-0.104 -0.28,0 -0.521,0.063 -0.722,0.199 -0.184,0.123 -0.323,0.297 -0.427,0.521 -0.07,0.162 -0.119,0.4 -0.146,0.716 -0.036,0.377 -0.063,0.979 -0.077,1.803 -0.135,-0.007 -0.239,-0.01 -0.313,-0.01 -0.079,10e-4 -0.191,0.003 -0.342,0.008 z"
   id="path3211"
   inkscape:connector-curvature="0"
   style="fill:#9ea0a3" />
		<path
   d="m 138.45,359.094 0.025,-0.666 0.372,0.007 c 0.056,0 0.168,-0.002 0.334,-0.007 -0.01,0.104 -0.016,0.191 -0.018,0.271 l -0.02,0.395 c -0.157,-0.007 -0.271,-0.01 -0.336,-0.01 -0.053,0.003 -0.175,0.005 -0.357,0.01 z"
   id="path3213"
   inkscape:connector-curvature="0"
   style="fill:#9ea0a3" />
	</g>
	<g
   id="g3215">
		<path
   d="m 62.413,323.596 c 6.907,-8.577 16.197,-11.242 25.032,-11.24 l 0,0 c 10.376,0.002 19.289,3.52 23.719,5.547 1.747,0.8 1.605,0.798 1.605,0.798 -0.449,-0.203 -0.956,-0.426 -1.519,-0.665 -0.618,-0.262 -1.299,-0.54 -2.041,-0.827 -0.794,-0.308 -1.652,-0.625 -2.569,-0.939 l 0,0 c -5.112,-1.771 -12.02,-3.54 -19.195,-3.539 l 0,0 c -8.766,0.002 -18.041,2.792 -24.868,11.263 l -0.216,-0.338 0.052,-0.06 0,0 z"
   id="path3217"
   inkscape:connector-curvature="0"
   style="fill:#cf0a2c" />
	</g>
	<g
   id="g3219">
		<path
   d="m 53.629,318.97 0.083,-0.139 c 0,0 0.205,0.398 0.438,0.948 l 0,0 c 0.235,0.551 0.597,1.327 1.083,2.225 l 0,0 c 0.983,1.793 2.497,4.072 4.615,6.008 l 0,0 -0.251,0.271 c -4.319,-3.944 -6.113,-8.973 -6.119,-8.987 l 0.151,-0.326 z"
   id="path3221"
   inkscape:connector-curvature="0"
   style="fill:#cf0a2c" />
	</g>
	<g
   id="g3223">
		<path
   d="m 60.916,329.367 0.19,-0.331 c 0.002,10e-4 0.559,0.436 1.513,1.035 l 0,0 c 0.952,0.604 2.336,1.407 4.039,2.211 l 0,0 c 3.402,1.608 8.097,3.214 13.229,3.213 l 0,0 c 2.623,0 5.48,-0.411 8.225,-1.46 l -0.056,0.167 -0.123,0.068 c -2.792,1.064 -5.386,1.597 -8.047,1.597 l 0,0 c -10.421,-0.004 -18.955,-6.492 -18.97,-6.5 l 0,0 z"
   id="path3225"
   inkscape:connector-curvature="0"
   style="fill:#cf0a2c" />
	</g>
	<g
   id="g3227">
		<path
   d="m 55.772,340.652 c 0.001,-7.819 3.639,-12.674 3.649,-12.692 l 0,0 0,0 0.297,0.226 c 0,0.001 -0.217,0.291 -0.552,0.854 l 0,0 c -0.335,0.567 -0.782,1.405 -1.23,2.483 l 0,0 c -0.895,2.158 -1.792,5.278 -1.792,9.128 l 0,0 c 0.002,7.547 3.535,17.021 15.159,27.902 l 1.755,1.754 C 59.279,358.808 55.77,348.317 55.772,340.652 l 0,0 z"
   id="path3229"
   inkscape:connector-curvature="0"
   style="fill:#cf0a2c" />
	</g>
</g>
</svg>